<?xml version="1.0" encoding="utf-8"?>
<!-- Generator: Adobe Illustrator 16.0.0, SVG Export Plug-In . SVG Version: 6.00 Build 0)  -->
<!DOCTYPE svg PUBLIC "-//W3C//DTD SVG 1.1//EN" "http://www.w3.org/Graphics/SVG/1.1/DTD/svg11.dtd">
<svg version="1.1" xmlns="http://www.w3.org/2000/svg" xmlns:xlink="http://www.w3.org/1999/xlink" x="0px" y="0px" width="623px"
	 height="328px" viewBox="0 0 623 328" enable-background="new 0 0 623 328" xml:space="preserve">
<g id="Layer_3" display="none">
	<rect x="-29" y="-100" display="inline" fill-rule="evenodd" clip-rule="evenodd" fill="#161616" width="691" height="455"/>
</g>
<g id="Layer_2" display="none">
	<rect x="-305" y="-159" display="inline" fill-rule="evenodd" clip-rule="evenodd" fill="#EAEAEA" width="1174" height="586"/>
</g>
<g id="Layer_1">
	<path opacity="0.35" fill-rule="evenodd" clip-rule="evenodd" fill="#BF9456" d="M300.727,98.837
		c3.141,1.342,6.271,2.192,9.186,2.207c4.575,0.021,8.594-2.581,12.416-4.621c4.165-2.222,8.767-3.202,12.858-5.344
		c7.604-3.983,16.513-8.055,20.946-15.547c5.084-8.594,9.516-17.623,13.756-26.675c4.523-9.691,8.89-11.561,19.161-8.815
		c4.305,1.144,9.249,1.308,13.665,0.597c6.181-0.936,12.007-3.885,18.184-4.728c8.912-1.384,17.939-2.545,26.897-2.253
		c10.789,0.308,20.915,0.565,28.666-8.641c2.074-2.375,5.929-4.089,9.137-4.639c16.038-2.799,32.181-5.117,48.362-7.548
		c1.449-0.305,3.241-0.308,4.794,0.089c1.704,0.436,4.339,1.239,4.434,2.326c0.318,1.626-0.705,3.944-1.939,5.229
		c-2.348,2.404-5.424,4.244-8.044,6.496c-9.003,7.529-10.049,14.836-3.968,24.388c4.005,6.127,3.695,13.538-2.44,20.033
		c-6.77,7.092-9.807,14.674-10.205,24.402c-0.094,4.581-3.796,10.312-7.717,13.441c-9.594,7.776-20.327,14.426-30.683,21.47
		c-5.338,3.714-7.798,7.606-3.644,14.181c3.696,6.139,2.011,12.126-3.431,17.218c-7.991,7.51-8.999,14.926-2.314,23.478
		c6.874,8.757,8.775,18.618,10.553,29.029c1.936,12.037,5.631,23.698,8.035,35.668c1.235,6.317,2.968,13.083,1.792,19.172
		c-1.891,10.307-5.684,20.435-9.321,30.566c-0.91,2.596-4.186,6.437-6.131,6.292c-2.761-0.122-5.86-3.123-7.792-5.699
		c-6.706-9.47-12.502-19.516-19.485-28.729c-4.932-6.497-8.888-5.504-11.965,1.985c-1.68,3.981-2.738,8.155-4.382,12.215
		c-1.559,3.872-4.68,4.036-6.72,0.871c-2.494-3.912-4.349-8.437-5.66-13.023c-3.116-11.319-7.851-21.784-18.114-28.782
		c-2.228-1.477-5.379-1.827-8.299-2.027c-2.488-0.193-5.043,0.789-7.579,0.965c-10.618,0.839-14.623-3.357-15.393-13.457
		c-0.614-7.814-2.721-15.584-4.479-24.781c-4.108,2.687-6.282,4.045-8.337,5.483c-13.368,9.581-23.047,8.412-33.459-3.926
		c-1.556-1.867-4.3-2.947-6.494-4.387c-1.485,2.106-3.453,4.096-4.2,6.327c-2.754,8.855-9.867,12.778-17.675,16.205
		c-9.595,4.133-19.301,8.039-28.594,12.694c-3.563,1.737-6.459,5.257-8.515,8.604c-2.868,4.841-2.086,9.53,3.975,12.292
		c4.381,2.031,6.226,5.265,6.219,10.348c0.023,3.605,2.466,7.108,3.422,10.771c0.618,2.255,0.489,4.685,0.733,7.007
		c-2.455-0.006-5.338,0.823-7.267-0.131c-5.01-2.632-9.934-5.778-14.599-9.213c-7.178-5.356-14.096-11.075-21.071-16.872
		c-4.181-3.354-8.373-3.244-12.873-0.457c-11.626,7.299-16.555,17.884-16.669,32.824c-4.555-1.151-9.726-0.915-12.872-3.326
		c-10.819-8.221-21.306-6.17-32.021-0.584c-3.607,1.957-7.178,4.139-10.693,6.358c-4.933,3.149-9.474,1.226-9.242-4.515
		c0.424-8.309,0.912-16.767,2.832-24.83c5.829-25.88,12.397-51.6,18.344-77.438c6.039-25.546-6.431-44.695-23.828-61.941
		c-4.548-4.391-8.94-8.649-13.791-12.583c-16.758-13.297-16.927-31.687-14.8-49.812c1.179-10.064-0.816-18.219-6.46-26.141
		c-3.356-4.608-7.264-8.783-10.676-13.373c-2.73-3.75-1.976-6.256,2.763-8.341c12.442-5.312,23.717-5.881,35.345,2.944
		c12.53,9.595,26.766,14.659,43.534,13.308c12.178-0.955,24.154,2.353,34.862,8.421c3.739,2.038,7.36,4,11.102,5.944
		c8.91,4.505,14.342,3.831,21.475-2.902c4.153-3.974,6.995-4.621,11.313,0.297c2.969,3.551,8.101,5.209,12.155,7.877
		c2.055,1.491,5.229,3.39,5.505,5.306c1.643,11.39,9.019,20.135,17.796,27.621C285.945,89.837,293.364,95.691,300.727,98.837z
		 M419.566,222.506c7.824,5.994,15.454,12.207,23.561,17.874c2.768,1.928,6.734,2.404,10.22,3.427
		c0.54-3.595,1.313-7.115,1.505-10.796c0.028-1.361-1.223-2.854-1.936-4.305c-6.762-14.255-17.4-23.984-32.212-31.433
		c-21.291-10.766-40.804-24.741-61.45-36.473c-9.59-5.475-20.313-9.001-30.556-13.219c-1.371-0.5-3.13-0.406-4.518-0.083
		c-0.511,0.212-1.124,2.39-0.645,2.897c4.987,5.686,9.026,13.048,15.48,16.478c26.29,14.282,51.531,30.036,74.087,49.59
		c-3.736-2.205-7.434-4.369-11.01-6.756c-14.605-9.908-28.775-20.215-43.51-29.594c-7.575-4.979-16.158-8.302-24.26-12.352
		c-2.964,10.567-5.816,20.435-8.782,31.09c3.732,0.438,7.735,1.024,12.301,1.553c-2.972,1.415-5.468,2.552-7.752,3.684
		c2.465,7.111,8.5,9.322,15.414,4.738c7.784-5.271,15.707-8.586,25.85-7.15c-2.83-2.702-5.895-5.222-9.312-5.801
		c-3.653-0.618-7.649,0.412-13.019,0.905c12.002-4.568,21.485-3.365,29.181,5.166c3.352,3.852,6.707,7.631,9.422,11.879
		c4.499,6.928,10.601,11.529,18.244,15.131c6.02,2.979,11.14,7.856,16.917,11.349c6.231,3.829,12.674,7.152,19.353,10.326
		c1.231,0.647,3.604-0.926,6.975-1.97C438.477,239.118,429.022,230.849,419.566,222.506z M247.131,196.836
		c1.865-1.656,3.389-3.766,5.464-5.052c12.103-7.696,24.221-15.297,36.438-22.803c6.729-4.204,8.605-8.217,6.833-16.808
		c-3.334,1.189-6.781,1.937-9.814,3.54c-19.62,10.371-39.037,21.115-58.754,31.45c-10.38,5.365-20.977,10.953-32.048,14.984
		c-10.897,3.924-18.338,9.385-22.68,20.64c-4.191,10.562-2.32,19.099,2.542,29.052c7.538-6.488,14.597-12.469,21.759-18.595
		c-6.87,7.088-13.796,14.101-20.661,21.19c0.472,0.598,1.027,1.123,1.622,1.723c9.273,0.026,15.2-5.903,19.895-12.445
		c7.421-10.209,16.464-15.16,29.519-14.004c4.685,0.492,11.119-0.643,14.333-3.526c10.561-9.45,23.37-13.599,36.531-17.811
		c9.615-3.067,19.116-6.464,27.083-9.228c-4.001-10.157-7.747-19.538-12.043-30.42C278.13,177.892,262.619,187.474,247.131,196.836z
		 M159.304,73.454c4.743,4.338,9.11,8.982,14.176,12.903c18.859,14.44,40.267,24.216,62.982,31.145
		c7.648,2.293,15.827,3.657,23.853,3.84c10.224,0.224,20.466-1.339,30.725-1.758c6.142-0.239,8.901-2.746,8.115-8.154
		c-8.62-3.432-16.937-6.437-24.892-10.042c-8.013-3.587-15.616-8.126-23.569-11.804c-7.717-3.691-15.454-7.513-23.583-10.257
		c-8.32-2.821-17.072-4.543-25.725-6.451c-8.53-2.013-17.164-3.937-25.918-5.569c-8.076-1.6-15.346-7.181-25.442-6.095
		c3.815,5.057,6.64,8.826,9.565,12.486c-1.863-1.302-3.65-2.496-5.256-4.071c-6.166-6.202-12.218-12.368-18.322-18.701
		c-4.237-4.475-8.137-4.362-10.84-0.675c2.928,12.052,5.802,22.963,8.169,33.901c1.824,8.039,8.639,14.016,17.354,13.881
		c5.398-0.106,10.763-0.487,16.021-1.2c2.503-0.434,6.564-1.85,6.769-3.172c0.28-2.332-1.415-5.325-3.042-7.508
		C166.95,81.71,163.055,77.684,159.304,73.454z M322.044,109.051c2.378,5.657,5.427,9.008,12.023,8.482
		c5.777-0.593,11.738-0.283,17.562-0.16c12.327,0.336,24.296-1.727,34.793-8.014c26.627-15.767,52.995-32.069,79.096-48.636
		c9.004-5.688,17.102-12.828,26.84-20.271c-4.29-0.005-6.854-0.125-9.353,0.106c-1.879,0.148-3.64,0.613-5.402,1.078
		c-33.589,9.051-64.88,22.321-91.455,44.952c-11.307,9.658-24.233,16.674-39.774,18.139
		C338.326,105.557,330.413,107.603,322.044,109.051z M239.221,46.587c-2.407,1.467-4.255,2.315-5.819,3.52
		c-14.282,10.36-23.797,11.695-38.215,2.084c-15.268-10.07-32.741-7.591-49.2-10.725c-1.569-0.435-3.534,1.351-5.423,2.126
		c0.981,1.638,1.487,3.599,2.904,4.857c12.853,11.81,28.835,17.292,45.916,19.664c21.841,3.012,42.884,7.885,62.363,18.675
		c11.444,6.411,23.509,11.913,35.436,17.596c1.37,0.687,3.551-0.248,5.289-0.438c-0.889-1.323-1.595-3.01-2.782-3.971
		c-1.436-1.351-3.523-2.199-5.272-3.263c-11.878-7.08-22.566-15.281-27.058-29c-0.737-2.02-2.361-4.59-4.159-5.211
		C245.436,59.917,241.458,54.304,239.221,46.587z M188.365,282.117c8.024-18.7,13.598-24.564,26.084-29.047
		c7.991-2.945,14.009-1.881,19.86,4.598c6.02,6.697,13.153,12.312,20.156,18.623c5.363-9.658,5.363-9.658-3.693-15.675
		c-8.593-5.713-10.234-13.988-2.729-20.919c5.107-4.766,11.743-8.104,18.212-10.932c7.804-3.43,16.153-5.706,24.319-8.611
		c4.632-1.684,8.583-4.298,9.354-10.543c-2.782-0.234-5.549-1.166-7.644-0.54c-13.624,3.798-28.271,5.444-38.927,15.776
		c-6.94,6.797-15.154,9.221-24.236,7.363c-8.502-1.628-14.584,1.282-19.636,7.297c-10.212,12.442-23.506,20.186-39.037,24.981
		c-2.174,0.621-4.967,3.665-4.99,5.686c-0.06,2.064,2.389,5.237,4.549,6.233C175.71,278.722,181.994,280.157,188.365,282.117z
		 M433.783,129.768c3.765-1.017,8.754-1.093,11.918-3.558c10.85-8.396,21.136-17.649,31.49-26.681
		c1.906-1.658,2.703-4.312,4.035-6.534c-2.751-0.897-5.479-2.602-8.212-2.561c-27.135,0.554-52.621,8.06-77.676,17.303
		c-3.613,1.37-6.785,4.054-10.023,6.075c-1.582,1.037-3.234,1.947-4.778,2.913c1.682,1.614,2.996,4.195,5.049,4.692
		c5.624,1.428,11.46,1.884,17.206,2.928C412.815,126.018,422.912,127.784,433.783,129.768z M322.286,101.842
		c0.374,0.889,0.779,1.854,1.211,2.837c13.522-1.041,27.394-1.747,39.359-9.332c11.691-7.48,22.924-15.592,34.609-22.98
		c8.927-5.709,17.931-11.379,27.49-15.915c7.992-3.941,16.927-6.189,25.332-9.44c2.124-0.845,3.644-2.75,5.462-4.116
		c-1.936-0.643-3.934-1.912-5.96-2.042c-13.35-0.851-26.207,0.939-38.936,5.879c-6.13,2.447-14.277,2.61-20.995,1.403
		c-6.597-1.298-9.756,0.485-12.236,5.555c-3.297,6.732-6.281,13.581-9.652,20.254c-4.861,9.149-11.059,15.809-22.718,18.026
		C337.233,93.39,329.899,98.355,322.286,101.842z M265.309,125.776c-6.161,0.037-13.189-1.104-19.668,0.213
		c-19.135,3.848-38.057,8.581-57.031,13.167c-8.205,1.929-9.711,4.958-7.084,12.847c1.731,4.908,5.18,7.713,10.432,7.274
		c5.269-0.437,10.589-1.334,15.644-2.77c27.969-7.863,55.843-15.84,83.683-24.112c2.196-0.604,3.707-3.152,5.478-4.814
		c-2.392-1.24-4.86-3.51-7.178-3.444C281.652,124.198,273.78,125.048,265.309,125.776z M304.798,142.306
		c-0.646-0.692-1.372-1.404-2.002-2.079c-3.64,0.762-7.367,1.025-10.822,2.231c-14.333,5.262-28.505,11.131-43.081,15.982
		c-14.873,5.047-30.025,9.354-45.216,13.678c-4.682,1.24-9.803,1.017-14.356,2.59c-10.378,3.4-15.013,13.585-10.551,22.281
		c2.529,4.979,6.213,7.805,12.412,4.79c10.374-5.037,21.275-9.256,31.175-15.039c24.95-14.619,49.357-30.313,77.384-39.171
		C301.781,146.906,303.104,144.134,304.798,142.306z M329.366,132.042c22.892-1.516,43.319,4.802,63.087,13.978
		c9.647,4.5,19.295,9.239,29.19,13.102c5.141,1.934,10.942,2.279,16.923,3.345c0.042-5.761-0.188-9.832,0.012-13.821
		c0.54-7.242-2.611-11.329-9.979-13.268c-29.066-7.892-58.455-13.488-88.697-14.426
		C332.034,120.643,330.026,122.705,329.366,132.042z M230.07,120.405c-0.174-0.978-0.27-2.03-0.522-3.009
		c-15.928-5.333-31.724-11.438-48.043-15.71c-7.909-2.058-16.771-3.306-25.286,0.515c-6.491,2.918-7.613,7.297-2.241,12.289
		c3.844,3.624,7.338,8.177,11.99,10.25c7.973,3.623,16.754,7.794,25.115,7.744c10.896-0.17,21.733-4.167,32.53-6.989
		C226.041,124.896,227.948,122.151,230.07,120.405z M327.649,139.686c2.754,9.29,9.944,7.469,14.509,10.037
		c18.854,10.816,38.133,20.958,56.167,32.826c9.032,6.093,19.255,7.604,28.76,11.53c2.436,1.039,7.323-1.706,9.979-3.941
		c1.189-0.936,0.51-5.898-0.975-7.433c-3.702-3.861-7.99-7.821-12.855-9.843c-16.609-7.277-33.508-13.659-50.323-20.389
		c-7.691-3.158-15.15-7.178-23.074-9.494C343.155,140.999,335.889,140.886,327.649,139.686z M499.657,41.764
		c-0.851-0.2-1.783-0.437-2.558-0.636c-5.928,3.941-12.083,7.602-17.666,11.843c-10.569,8.089-20.879,16.532-31.449,24.714
		c-2.657,2.124-5.886,3.794-8.27,6.163c-1.354,1.356-1.64,3.779-2.416,5.679c1.858,0.512,3.746,1.614,5.541,1.481
		c8.981-0.795,17.978-2.398,27.026-2.803c17.786-0.761,28.905-10.847,30.117-28.198c0.137-2.685,0.968-5.373,0.868-8.083
		C500.766,48.594,500.135,45.178,499.657,41.764z M447.086,256.391c-25.923-11.11-46.021-28.665-67.517-43.01
		c0.038,7.732,0.104,15.978-0.012,25.473c11.527-3.543,21.534-5.055,31.361,2.305c9.137,6.899,12.372,16.307,15.961,25.648
		C433.454,263.467,439.679,260.195,447.086,256.391z M503,97.387c-0.28-5.361-4.704-8.22-9.035-6.054
		c-4.881,2.397-9.659,5.363-13.939,8.783c-8.279,6.566-15.986,13.75-24.31,20.446c-3.644,2.97-6.516,6.211-3.484,10.26
		c3.345,4.35,7.27,1.017,10.432-1.153c8.77-5.839,17.583-11.881,26.053-18.077c4.274-3.069,8.09-6.718,11.98-10.308
		C501.928,100.147,502.474,98.243,503,97.387z M111.646,34.287c0.15,2.047-0.28,4.026,0.538,5.053
		c6.159,8.505,4.592,17.458,2.553,26.623c-1.868,8.431,0.109,16.583,4.653,23.992c2.602,4.244,6.116,5.834,11.589,4.076
		c-3.052-13.693-0.805-28.265-9.674-40.5c-0.873-1.158-0.708-3.381-0.306-5.047C122.973,38.636,122.919,38.449,111.646,34.287z
		 M166.337,212.146c-0.777-0.012-1.518-0.026-2.298-0.041c-1.244,1.818-3.071,3.479-3.539,5.419
		c-3.298,12.566-8.778,25.093-6.301,38.35c0.724,3.549,4.503,6.562,6.891,9.846c1.493-3.507,4.058-6.958,4.424-10.522
		c1.23-11.609,1.746-23.341,2.218-34.999C167.864,217.55,166.867,214.881,166.337,212.146z M469.615,267.732
		c0.671-2.49,1.074-3.147,1.046-3.588c-2.361-16.09-4.366-32.176-6.884-48.231c-0.715-5.056-4.859-8.226-9.364-7.019
		c-5.172,1.379-2.969,6.13-1.914,9.794c2.472,8.621,4.513,17.381,7.455,25.902C462.454,251.959,466.014,258.98,469.615,267.732z
		 M123.931,97.527c0.042,3.517-0.095,4.599,0.118,5.67c0.077,0.903,0.229,1.993,0.785,2.517
		c10.203,8.984,18.389,20.269,32.655,23.915c1.379,0.282,2.923-0.021,4.463-0.085c-0.375-1.608-0.274-3.723-1.189-4.697
		c-7.875-7.413-15.676-14.825-24.031-21.621C133.606,100.703,129.166,99.775,123.931,97.527z M511.987,37.205
		c-6.688,8.913-11.17,27.787-9.797,40.694C515.938,70.734,525.56,55.799,511.987,37.205z M454.822,139.464
		c-5.178-0.206-10.886,4.476-11.051,8.688c-0.14,5.075,5.187,13.124,8.769,13.374c4.007,0.274,10.999-7.954,10.679-13.351
		C463.011,143.036,459.798,140.069,454.822,139.464z M460.218,204.99c0.757-0.576,1.548-1.226,2.34-1.8
		c-3.097-4.692-6.08-9.459-9.025-14.08c-7.17,3.811-8.318,8.467-6.046,13.473C450.438,208.822,455.81,205.277,460.218,204.99z
		 M161.514,140.523c-0.037,6.55,1.83,11.536,7.834,14.24c4.285,1.992,6.757,0.178,6.286-4.414
		C175.01,144.596,169.119,140.294,161.514,140.523z M170.482,205.892c1.574-7.481,3.079-13.342,3.942-19.292
		c0.168-0.655-4.284-2.984-5.526-2.382C164.526,186.422,164.281,200.292,170.482,205.892z"/>
	<text transform="matrix(1.0355 0 0 1 1.3066 205.8926)"><tspan x="0" y="0" fill="#A57F51" font-family="'EBHFacsimile-Regular'" font-size="78.6441" letter-spacing="-5.794">E2</tspan><tspan x="46.636" y="0" fill="#A57F51" font-family="'EBHFacsimile-Regular'" font-size="78.6441">x</tspan><tspan x="95.159" y="0" fill="#A57F51" font-family="'EBHFacsimile-Regular'" font-size="78.6441" letter-spacing="1.931">ete</tspan><tspan x="129.682" y="0" fill="#A57F51" font-family="'EBHFacsimile-Regular'" font-size="78.6441" letter-spacing="-1.931">r-</tspan><tspan x="214.775" y="0" fill="#A57F51" font-family="'EBHAlternates-Regular'" font-size="78.6441" letter-spacing="-5.794">B</tspan><tspan x="244.658" y="0" fill="#A57F51" font-family="'EBHAlternates-Regular'" font-size="78.6441" letter-spacing="1.931">o</tspan><tspan x="302.304" y="0" fill="#A57F51" font-family="'EBHAlternates-Regular'" font-size="78.6441">ok</tspan><tspan x="407.214" y="0" fill="#A57F51" font-family="'EBHAlternates-Regular'" font-size="78.6441" letter-spacing="-3.863"> H</tspan><tspan x="484.127" y="0" fill="#A57F51" font-family="'EBHAlternates-Regular'" font-size="78.6441">and</tspan></text>
	
		<text transform="matrix(1.0547 0 0 1 129.5415 102.8169)" fill="#A57F51" font-family="'EBHAlternates-Regular'" font-size="28.3012" letter-spacing="13.274">THE DIG2ITA2L</text>
</g>
</svg>
