<?xml version="1.0" encoding="utf-8"?>
<!-- Generator: Adobe Illustrator 16.0.0, SVG Export Plug-In . SVG Version: 6.00 Build 0)  -->
<!DOCTYPE svg PUBLIC "-//W3C//DTD SVG 1.1//EN" "http://www.w3.org/Graphics/SVG/1.1/DTD/svg11.dtd">
<svg version="1.1" xmlns="http://www.w3.org/2000/svg" xmlns:xlink="http://www.w3.org/1999/xlink" x="0px" y="0px" width="623px"
	 height="328px" viewBox="0 0 623 328" enable-background="new 0 0 623 328" xml:space="preserve">
<g id="Layer_3" display="none">
	<rect x="-29" y="-100" display="inline" fill-rule="evenodd" clip-rule="evenodd" fill="#161616" width="691" height="455"/>
</g>
<g id="Layer_2" display="none">
	<rect x="-305" y="-159" display="inline" fill-rule="evenodd" clip-rule="evenodd" fill="#EAEAEA" width="1174" height="586"/>
</g>
<g id="Layer_1">
	<path opacity="0.35" fill-rule="evenodd" clip-rule="evenodd" fill="#BF9456" d="M300.727,98.837
		c3.141,1.342,6.271,2.192,9.186,2.207c4.575,0.021,8.594-2.581,12.416-4.621c4.165-2.222,8.767-3.202,12.858-5.344
		c7.604-3.983,16.513-8.055,20.946-15.547c5.084-8.594,9.516-17.623,13.756-26.675c4.523-9.691,8.89-11.561,19.161-8.815
		c4.305,1.144,9.249,1.308,13.665,0.597c6.181-0.936,12.007-3.885,18.184-4.728c8.912-1.384,17.939-2.545,26.897-2.253
		c10.789,0.308,20.915,0.565,28.666-8.641c2.074-2.375,5.929-4.089,9.137-4.639c16.038-2.799,32.181-5.117,48.362-7.548
		c1.449-0.305,3.241-0.308,4.794,0.089c1.704,0.436,4.339,1.239,4.434,2.326c0.318,1.626-0.705,3.944-1.939,5.229
		c-2.348,2.404-5.424,4.244-8.044,6.496c-9.003,7.529-10.049,14.836-3.968,24.388c4.005,6.127,3.695,13.538-2.44,20.033
		c-6.77,7.092-9.807,14.674-10.205,24.402c-0.094,4.581-3.796,10.312-7.717,13.441c-9.594,7.776-20.327,14.426-30.683,21.47
		c-5.338,3.714-7.798,7.606-3.644,14.181c3.696,6.139,2.011,12.126-3.431,17.218c-7.991,7.51-8.999,14.926-2.314,23.478
		c6.874,8.757,8.775,18.618,10.553,29.029c1.936,12.037,5.631,23.698,8.035,35.668c1.235,6.317,2.968,13.083,1.792,19.172
		c-1.891,10.307-5.684,20.435-9.321,30.566c-0.91,2.596-4.186,6.437-6.131,6.292c-2.761-0.122-5.86-3.123-7.792-5.699
		c-6.706-9.47-12.502-19.516-19.485-28.729c-4.932-6.497-8.888-5.504-11.965,1.985c-1.68,3.981-2.738,8.155-4.382,12.215
		c-1.559,3.872-4.68,4.036-6.72,0.871c-2.494-3.912-4.349-8.437-5.66-13.023c-3.116-11.319-7.851-21.784-18.114-28.782
		c-2.228-1.477-5.379-1.827-8.299-2.027c-2.488-0.193-5.043,0.789-7.579,0.965c-10.618,0.839-14.623-3.357-15.393-13.457
		c-0.614-7.814-2.721-15.584-4.479-24.781c-4.108,2.687-6.282,4.045-8.337,5.483c-13.368,9.581-23.047,8.412-33.459-3.926
		c-1.556-1.867-4.3-2.947-6.494-4.387c-1.485,2.106-3.453,4.096-4.2,6.327c-2.754,8.855-9.867,12.778-17.675,16.205
		c-9.595,4.133-19.301,8.039-28.594,12.694c-3.563,1.737-6.459,5.257-8.515,8.604c-2.868,4.841-2.086,9.53,3.975,12.292
		c4.381,2.031,6.226,5.265,6.219,10.348c0.023,3.605,2.466,7.108,3.422,10.771c0.618,2.255,0.489,4.685,0.733,7.007
		c-2.455-0.006-5.338,0.823-7.267-0.131c-5.01-2.632-9.934-5.778-14.599-9.213c-7.178-5.356-14.096-11.075-21.071-16.872
		c-4.181-3.354-8.373-3.244-12.873-0.457c-11.626,7.299-16.555,17.884-16.669,32.824c-4.555-1.151-9.726-0.915-12.872-3.326
		c-10.819-8.221-21.306-6.17-32.021-0.584c-3.607,1.957-7.178,4.139-10.693,6.358c-4.933,3.149-9.474,1.226-9.242-4.515
		c0.424-8.309,0.912-16.767,2.832-24.83c5.829-25.88,12.397-51.6,18.344-77.438c6.039-25.546-6.431-44.695-23.828-61.941
		c-4.548-4.391-8.94-8.649-13.791-12.583c-16.758-13.297-16.927-31.687-14.8-49.812c1.179-10.064-0.816-18.219-6.46-26.141
		c-3.356-4.608-7.264-8.783-10.676-13.373c-2.73-3.75-1.976-6.256,2.763-8.341c12.442-5.312,23.717-5.881,35.345,2.944
		c12.53,9.595,26.766,14.659,43.534,13.308c12.178-0.955,24.154,2.353,34.862,8.421c3.739,2.038,7.36,4,11.102,5.944
		c8.91,4.505,14.342,3.831,21.475-2.902c4.153-3.974,6.995-4.621,11.313,0.297c2.969,3.551,8.101,5.209,12.155,7.877
		c2.055,1.491,5.229,3.39,5.505,5.306c1.643,11.39,9.019,20.135,17.796,27.621C285.945,89.837,293.364,95.691,300.727,98.837z
		 M419.566,222.506c7.824,5.994,15.454,12.207,23.561,17.874c2.768,1.928,6.734,2.404,10.22,3.427
		c0.54-3.595,1.313-7.115,1.505-10.796c0.028-1.361-1.223-2.854-1.936-4.305c-6.762-14.255-17.4-23.984-32.212-31.433
		c-21.291-10.766-40.804-24.741-61.45-36.473c-9.59-5.475-20.313-9.001-30.556-13.219c-1.371-0.5-3.13-0.406-4.518-0.083
		c-0.511,0.212-1.124,2.39-0.645,2.897c4.987,5.686,9.026,13.048,15.48,16.478c26.29,14.282,51.531,30.036,74.087,49.59
		c-3.736-2.205-7.434-4.369-11.01-6.756c-14.605-9.908-28.775-20.215-43.51-29.594c-7.575-4.979-16.158-8.302-24.26-12.352
		c-2.964,10.567-5.816,20.435-8.782,31.09c3.732,0.438,7.735,1.024,12.301,1.553c-2.972,1.415-5.468,2.552-7.752,3.684
		c2.465,7.111,8.5,9.322,15.414,4.738c7.784-5.271,15.707-8.586,25.85-7.15c-2.83-2.702-5.895-5.222-9.312-5.801
		c-3.653-0.618-7.649,0.412-13.019,0.905c12.002-4.568,21.485-3.365,29.181,5.166c3.352,3.852,6.707,7.631,9.422,11.879
		c4.499,6.928,10.601,11.529,18.244,15.131c6.02,2.979,11.14,7.856,16.917,11.349c6.231,3.829,12.674,7.152,19.353,10.326
		c1.231,0.647,3.604-0.926,6.975-1.97C438.477,239.118,429.022,230.849,419.566,222.506z M247.131,196.836
		c1.865-1.656,3.389-3.766,5.464-5.052c12.103-7.696,24.221-15.297,36.438-22.803c6.729-4.204,8.605-8.217,6.833-16.808
		c-3.334,1.189-6.781,1.937-9.814,3.54c-19.62,10.371-39.037,21.115-58.754,31.45c-10.38,5.365-20.977,10.953-32.048,14.984
		c-10.897,3.924-18.338,9.385-22.68,20.64c-4.191,10.562-2.32,19.099,2.542,29.052c7.538-6.488,14.597-12.469,21.759-18.595
		c-6.87,7.088-13.796,14.101-20.661,21.19c0.472,0.598,1.027,1.123,1.622,1.723c9.273,0.026,15.2-5.903,19.895-12.445
		c7.421-10.209,16.464-15.16,29.519-14.004c4.685,0.492,11.119-0.643,14.333-3.526c10.561-9.45,23.37-13.599,36.531-17.811
		c9.615-3.067,19.116-6.464,27.083-9.228c-4.001-10.157-7.747-19.538-12.043-30.42C278.13,177.892,262.619,187.474,247.131,196.836z
		 M159.304,73.454c4.743,4.338,9.11,8.982,14.176,12.903c18.859,14.44,40.267,24.216,62.982,31.145
		c7.648,2.293,15.827,3.657,23.853,3.84c10.224,0.224,20.466-1.339,30.725-1.758c6.142-0.239,8.901-2.746,8.115-8.154
		c-8.62-3.432-16.937-6.437-24.892-10.042c-8.013-3.587-15.616-8.126-23.569-11.804c-7.717-3.691-15.454-7.513-23.583-10.257
		c-8.32-2.821-17.072-4.543-25.725-6.451c-8.53-2.013-17.164-3.937-25.918-5.569c-8.076-1.6-15.346-7.181-25.442-6.095
		c3.815,5.057,6.64,8.826,9.565,12.486c-1.863-1.302-3.65-2.496-5.256-4.071c-6.166-6.202-12.218-12.368-18.322-18.701
		c-4.237-4.475-8.137-4.362-10.84-0.675c2.928,12.052,5.802,22.963,8.169,33.901c1.824,8.039,8.639,14.016,17.354,13.881
		c5.398-0.106,10.763-0.487,16.021-1.2c2.503-0.434,6.564-1.85,6.769-3.172c0.28-2.332-1.415-5.325-3.042-7.508
		C166.95,81.71,163.055,77.684,159.304,73.454z M322.044,109.051c2.378,5.657,5.427,9.008,12.023,8.482
		c5.777-0.593,11.738-0.283,17.562-0.16c12.327,0.336,24.296-1.727,34.793-8.014c26.627-15.767,52.995-32.069,79.096-48.636
		c9.004-5.688,17.102-12.828,26.84-20.271c-4.29-0.005-6.854-0.125-9.353,0.106c-1.879,0.148-3.64,0.613-5.402,1.078
		c-33.589,9.051-64.88,22.321-91.455,44.952c-11.307,9.658-24.233,16.674-39.774,18.139
		C338.326,105.557,330.413,107.603,322.044,109.051z M239.221,46.587c-2.407,1.467-4.255,2.315-5.819,3.52
		c-14.282,10.36-23.797,11.695-38.215,2.084c-15.268-10.07-32.741-7.591-49.2-10.725c-1.569-0.435-3.534,1.351-5.423,2.126
		c0.981,1.638,1.487,3.599,2.904,4.857c12.853,11.81,28.835,17.292,45.916,19.664c21.841,3.012,42.884,7.885,62.363,18.675
		c11.444,6.411,23.509,11.913,35.436,17.596c1.37,0.687,3.551-0.248,5.289-0.438c-0.889-1.323-1.595-3.01-2.782-3.971
		c-1.436-1.351-3.523-2.199-5.272-3.263c-11.878-7.08-22.566-15.281-27.058-29c-0.737-2.02-2.361-4.59-4.159-5.211
		C245.436,59.917,241.458,54.304,239.221,46.587z M188.365,282.117c8.024-18.7,13.598-24.564,26.084-29.047
		c7.991-2.945,14.009-1.881,19.86,4.598c6.02,6.697,13.153,12.312,20.156,18.623c5.363-9.658,5.363-9.658-3.693-15.675
		c-8.593-5.713-10.234-13.988-2.729-20.919c5.107-4.766,11.743-8.104,18.212-10.932c7.804-3.43,16.153-5.706,24.319-8.611
		c4.632-1.684,8.583-4.298,9.354-10.543c-2.782-0.234-5.549-1.166-7.644-0.54c-13.624,3.798-28.271,5.444-38.927,15.776
		c-6.94,6.797-15.154,9.221-24.236,7.363c-8.502-1.628-14.584,1.282-19.636,7.297c-10.212,12.442-23.506,20.186-39.037,24.981
		c-2.174,0.621-4.967,3.665-4.99,5.686c-0.06,2.064,2.389,5.237,4.549,6.233C175.71,278.722,181.994,280.157,188.365,282.117z
		 M433.783,129.768c3.765-1.017,8.754-1.093,11.918-3.558c10.85-8.396,21.136-17.649,31.49-26.681
		c1.906-1.658,2.703-4.312,4.035-6.534c-2.751-0.897-5.479-2.602-8.212-2.561c-27.135,0.554-52.621,8.06-77.676,17.303
		c-3.613,1.37-6.785,4.054-10.023,6.075c-1.582,1.037-3.234,1.947-4.778,2.913c1.682,1.614,2.996,4.195,5.049,4.692
		c5.624,1.428,11.46,1.884,17.206,2.928C412.815,126.018,422.912,127.784,433.783,129.768z M322.286,101.842
		c0.374,0.889,0.779,1.854,1.211,2.837c13.522-1.041,27.394-1.747,39.359-9.332c11.691-7.48,22.924-15.592,34.609-22.98
		c8.927-5.709,17.931-11.379,27.49-15.915c7.992-3.941,16.927-6.189,25.332-9.44c2.124-0.845,3.644-2.75,5.462-4.116
		c-1.936-0.643-3.934-1.912-5.96-2.042c-13.35-0.851-26.207,0.939-38.936,5.879c-6.13,2.447-14.277,2.61-20.995,1.403
		c-6.597-1.298-9.756,0.485-12.236,5.555c-3.297,6.732-6.281,13.581-9.652,20.254c-4.861,9.149-11.059,15.809-22.718,18.026
		C337.233,93.39,329.899,98.355,322.286,101.842z M265.309,125.776c-6.161,0.037-13.189-1.104-19.668,0.213
		c-19.135,3.848-38.057,8.581-57.031,13.167c-8.205,1.929-9.711,4.958-7.084,12.847c1.731,4.908,5.18,7.713,10.432,7.274
		c5.269-0.437,10.589-1.334,15.644-2.77c27.969-7.863,55.843-15.84,83.683-24.112c2.196-0.604,3.707-3.152,5.478-4.814
		c-2.392-1.24-4.86-3.51-7.178-3.444C281.652,124.198,273.78,125.048,265.309,125.776z M304.798,142.306
		c-0.646-0.692-1.372-1.404-2.002-2.079c-3.64,0.762-7.367,1.025-10.822,2.231c-14.333,5.262-28.505,11.131-43.081,15.982
		c-14.873,5.047-30.025,9.354-45.216,13.678c-4.682,1.24-9.803,1.017-14.356,2.59c-10.378,3.4-15.013,13.585-10.551,22.281
		c2.529,4.979,6.213,7.805,12.412,4.79c10.374-5.037,21.275-9.256,31.175-15.039c24.95-14.619,49.357-30.313,77.384-39.171
		C301.781,146.906,303.104,144.134,304.798,142.306z M329.366,132.042c22.892-1.516,43.319,4.802,63.087,13.978
		c9.647,4.5,19.295,9.239,29.19,13.102c5.141,1.934,10.942,2.279,16.923,3.345c0.042-5.761-0.188-9.832,0.012-13.821
		c0.54-7.242-2.611-11.329-9.979-13.268c-29.066-7.892-58.455-13.488-88.697-14.426
		C332.034,120.643,330.026,122.705,329.366,132.042z M230.07,120.405c-0.174-0.978-0.27-2.03-0.522-3.009
		c-15.928-5.333-31.724-11.438-48.043-15.71c-7.909-2.058-16.771-3.306-25.286,0.515c-6.491,2.918-7.613,7.297-2.241,12.289
		c3.844,3.624,7.338,8.177,11.99,10.25c7.973,3.623,16.754,7.794,25.115,7.744c10.896-0.17,21.733-4.167,32.53-6.989
		C226.041,124.896,227.948,122.151,230.07,120.405z M327.649,139.686c2.754,9.29,9.944,7.469,14.509,10.037
		c18.854,10.816,38.133,20.958,56.167,32.826c9.032,6.093,19.255,7.604,28.76,11.53c2.436,1.039,7.323-1.706,9.979-3.941
		c1.189-0.936,0.51-5.898-0.975-7.433c-3.702-3.861-7.99-7.821-12.855-9.843c-16.609-7.277-33.508-13.659-50.323-20.389
		c-7.691-3.158-15.15-7.178-23.074-9.494C343.155,140.999,335.889,140.886,327.649,139.686z M499.657,41.764
		c-0.851-0.2-1.783-0.437-2.558-0.636c-5.928,3.941-12.083,7.602-17.666,11.843c-10.569,8.089-20.879,16.532-31.449,24.714
		c-2.657,2.124-5.886,3.794-8.27,6.163c-1.354,1.356-1.64,3.779-2.416,5.679c1.858,0.512,3.746,1.614,5.541,1.481
		c8.981-0.795,17.978-2.398,27.026-2.803c17.786-0.761,28.905-10.847,30.117-28.198c0.137-2.685,0.968-5.373,0.868-8.083
		C500.766,48.594,500.135,45.178,499.657,41.764z M447.086,256.391c-25.923-11.11-46.021-28.665-67.517-43.01
		c0.038,7.732,0.104,15.978-0.012,25.473c11.527-3.543,21.534-5.055,31.361,2.305c9.137,6.899,12.372,16.307,15.961,25.648
		C433.454,263.467,439.679,260.195,447.086,256.391z M503,97.387c-0.28-5.361-4.704-8.22-9.035-6.054
		c-4.881,2.397-9.659,5.363-13.939,8.783c-8.279,6.566-15.986,13.75-24.31,20.446c-3.644,2.97-6.516,6.211-3.484,10.26
		c3.345,4.35,7.27,1.017,10.432-1.153c8.77-5.839,17.583-11.881,26.053-18.077c4.274-3.069,8.09-6.718,11.98-10.308
		C501.928,100.147,502.474,98.243,503,97.387z M111.646,34.287c0.15,2.047-0.28,4.026,0.538,5.053
		c6.159,8.505,4.592,17.458,2.553,26.623c-1.868,8.431,0.109,16.583,4.653,23.992c2.602,4.244,6.116,5.834,11.589,4.076
		c-3.052-13.693-0.805-28.265-9.674-40.5c-0.873-1.158-0.708-3.381-0.306-5.047C122.973,38.636,122.919,38.449,111.646,34.287z
		 M166.337,212.146c-0.777-0.012-1.518-0.026-2.298-0.041c-1.244,1.818-3.071,3.479-3.539,5.419
		c-3.298,12.566-8.778,25.093-6.301,38.35c0.724,3.549,4.503,6.562,6.891,9.846c1.493-3.507,4.058-6.958,4.424-10.522
		c1.23-11.609,1.746-23.341,2.218-34.999C167.864,217.55,166.867,214.881,166.337,212.146z M469.615,267.732
		c0.671-2.49,1.074-3.147,1.046-3.588c-2.361-16.09-4.366-32.176-6.884-48.231c-0.715-5.056-4.859-8.226-9.364-7.019
		c-5.172,1.379-2.969,6.13-1.914,9.794c2.472,8.621,4.513,17.381,7.455,25.902C462.454,251.959,466.014,258.98,469.615,267.732z
		 M123.931,97.527c0.042,3.517-0.095,4.599,0.118,5.67c0.077,0.903,0.229,1.993,0.785,2.517
		c10.203,8.984,18.389,20.269,32.655,23.915c1.379,0.282,2.923-0.021,4.463-0.085c-0.375-1.608-0.274-3.723-1.189-4.697
		c-7.875-7.413-15.676-14.825-24.031-21.621C133.606,100.703,129.166,99.775,123.931,97.527z M511.987,37.205
		c-6.688,8.913-11.17,27.787-9.797,40.694C515.938,70.734,525.56,55.799,511.987,37.205z M454.822,139.464
		c-5.178-0.206-10.886,4.476-11.051,8.688c-0.14,5.075,5.187,13.124,8.769,13.374c4.007,0.274,10.999-7.954,10.679-13.351
		C463.011,143.036,459.798,140.069,454.822,139.464z M460.218,204.99c0.757-0.576,1.548-1.226,2.34-1.8
		c-3.097-4.692-6.08-9.459-9.025-14.08c-7.17,3.811-8.318,8.467-6.046,13.473C450.438,208.822,455.81,205.277,460.218,204.99z
		 M161.514,140.523c-0.037,6.55,1.83,11.536,7.834,14.24c4.285,1.992,6.757,0.178,6.286-4.414
		C175.01,144.596,169.119,140.294,161.514,140.523z M170.482,205.892c1.574-7.481,3.079-13.342,3.942-19.292
		c0.168-0.655-4.284-2.984-5.526-2.382C164.526,186.422,164.281,200.292,170.482,205.892z"/>
	<g>
		<path fill="#A57F51" d="M50.576,206.521c-0.163-1.18-1.466-1.258-5.375-1.651c-1.303-0.157-3.42-0.157-5.782-0.157
			c-3.502,0-7.411,0.079-9.203,0.079c-7.248,0-5.7-0.157-14.903-0.157c-7.573,0-11.971,0.314-13.111,0.314
			c-0.245,0-0.407,0-0.407-0.079c0-0.078,0.651-0.235,1.873-0.472c2.28-0.551,6.433-0.314,7.085-2.281
			c0.244-0.629,0.244-5.19,0.244-8.571v-3.618l0.651-30.828c0.082-4.404-0.407-18.481-0.651-23.672
			c-0.163-2.988-5.456-2.359-8.062-2.988c-1.14-0.315-1.629-0.472-1.629-0.708c0-0.55,5.375-0.708,11.238-0.708
			c4.397,0,9.121,0.079,11.727,0.079c7.004,0,9.121-0.394,16.125-0.472l6.271-0.079c2.769,0,3.99-0.55,4.479-1.809
			c0.244-0.865,0.326-1.258,0.407-1.258c0.244,0-0.163,3.696-0.326,5.741c-0.082,0.944-0.082,1.73-0.082,2.359v2.674
			c0,1.101,0,2.438-0.244,4.562c-0.082,0.865-0.163,1.18-0.326,1.18c-0.326,0-0.57-3.46-0.733-3.696
			c-2.525-4.876-9.447-4.404-13.355-4.404h-13.6c-1.71,0-2.036,2.124-2.036,5.033c0,1.888,0.081,4.09,0.081,6.37
			c-0.081,4.876-0.163,8.651-0.163,11.403c0,4.562,0.244,6.528,1.547,6.606c5.049,0.157,10.831,0.472,15.717,0.472
			c5.457,0,9.772-0.314,11.157-1.573c1.792-1.573,2.525-5.033,2.851-5.033c0.163,0,0.163,1.022,0.163,4.011
			c0,2.124-0.488,4.326-0.488,6.685c0,0.629,0.081,1.337,0.163,1.966c0.082,0.314,0.082,0.629,0.082,0.865
			c0,0.55-0.082,0.708-0.326,0.708c-0.651,0-2.036-1.337-4.072-1.966c-3.013-0.865-5.293-0.787-8.714-0.944l-8.307-0.314
			c-1.059-0.079-2.117-0.079-3.176-0.079s-2.117,0-3.176,0.079c-2.525,0.079-2.688,0.079-3.013,2.91
			c-0.652,5.741-0.978,12.347-0.978,18.717c0,3.146,0.082,6.213,0.245,9.123l15.229-0.079c4.316,0,8.958-0.157,12.867-2.123
			c1.955-0.944,2.443-1.81,3.502-7.314c0.163-1.101,0.326-1.494,0.326-1.494c0.244,0-0.326,5.584-0.326,10.146
			c0,3.539-0.407,8.415-0.896,8.415C50.983,208.488,50.738,207.938,50.576,206.521z"/>
		<path fill="#A57F51" d="M31.684,217.296c0-1.101,0.407-2.202,1.14-2.202c1.059,0,1.466,2.123,2.524,1.888
			c3.909-0.786,8.062-3.854,9.854-5.584c1.792-1.729,3.42-3.067,5.212-4.719c2.932-2.752,5.049-5.662,7.492-8.65
			c2.199-2.674,4.072-5.505,6.271-8.101c0.733-0.865,2.362-2.28,2.362-3.618c0-1.966-5.538-10.381-6.759-11.796
			c-1.629-1.887-3.502-4.955-6.515-4.482c-1.547,0.236-5.293,3.46-4.397,2.359c2.28-2.91,7.329-5.819,11.075-5.819
			c1.14,0,2.118,0.236,3.095,0.708c2.606,1.416,4.805,5.584,6.189,8.179c0.652,1.18,2.28,5.505,2.932,5.19
			c1.385-1.022,4.561-3.618,4.968-3.932c3.746-2.91,8.388-9.438,13.681-9.438c2.769,0,7.085,0.865,7.085,4.247
			c0,2.988-4.316,5.819-6.433,5.505c-0.978-0.314,1.059-6.056-3.502-6.056c-0.57,0-1.222,0.157-2.036,0.551
			c-3.827,1.809-6.596,4.797-9.609,7.471c-1.384,1.258-2.769,1.966-3.094,2.988c-0.407,1.416,3.665,6.842,6.107,10.381
			c2.443,3.539,7.248,6.92,11.808,6.92c3.909,0,6.922-2.674,7.655-3.224c0.651-0.473,0.977-0.63,1.14-0.63
			c0.082,0,0.163,0.079,0.163,0.157c0,0.315-0.488,1.102-0.814,1.337c-4.398,3.775-7.981,7.393-13.844,7.393
			c-6.759,0-11.727-5.033-14.577-10.538c-0.977-1.888-2.932-5.741-3.502-4.797c-0.407,0-2.199,2.988-2.687,3.539
			c-2.118,2.438-6.759,8.808-10.343,12.583c-4.805,5.033-10.994,9.909-17.346,13.133c-1.222,0.63-2.443,1.416-3.502,1.416
			C32.091,219.655,31.684,218.396,31.684,217.296z"/>
		<path fill="#A57F51" d="M104,200.623c-2.688-5.269-3.176-8.414-4.072-15.335c-0.407-3.067-0.896-5.19-0.896-6.842
			c0-1.651,0.489-2.988,1.873-4.482c2.769-2.91,13.274-6.528,18.649-6.528c3.095,0,10.668,1.652,10.668,5.584
			c0,2.91-5.619,8.257-4.397,9.28c0.489,0.472,1.466,0.551,2.688,0.551c1.303,0,2.769-0.157,3.99-0.157
			c1.303,0,2.28,0.157,2.28,0.865c0,0.236-0.163,0.551-0.407,0.944c-1.792,2.595-2.524,4.011-4.072,4.011
			c-0.814,0-1.873-0.473-3.501-1.337c-1.303-0.708-2.769-1.022-4.235-1.022c-0.977,0-2.036,0.157-3.095,0.315
			c-5.538,0.943-11.238-0.158-11.238,4.719c0,0.393,0,0.786,0.082,1.258c0.733,4.562,2.932,9.123,6.515,8.651
			c8.225-1.102,14.821-9.045,15.31-9.045c0.163,0-0.489,1.102-2.362,4.247c-2.932,4.955-8.795,9.438-16.857,9.438
			C107.095,205.735,105.874,204.241,104,200.623z M115.483,183.715c2.28-0.236,5.945,0.079,7.736-1.416
			c0.896-0.786,2.28-4.011,2.28-5.819c0-1.966-1.547-1.573-2.769-2.124c-2.688-1.18-6.271-2.202-9.365-2.202
			c-2.606,0-4.886,0.708-6.108,2.595c-0.244,0.394-0.244,2.595-0.244,4.089c0,3.067,0.488,6.292,0.977,6.292
			C110.515,185.131,113.04,183.951,115.483,183.715z"/>
		<path fill="#A57F51" d="M187.717,233.654c0-1.81,1.14-3.618,1.466-5.584c0.489-2.988,0.733-12.426,0.733-28.862
			c0.082-1.966,0.082-4.011,0.082-6.135c0-2.044,0-4.168,0.082-6.134c0.081-1.494,0.244-3.225,0.244-4.955
			c0-4.483-1.629-9.28-7.085-9.28c-2.932,0-9.691,0.865-9.365,2.202c0,5.505,0.896,16.043,3.42,19.583
			c1.384,1.966,2.524,2.438,3.583,2.674c2.118,0.394,6.189-4.168,5.864-2.753c-0.082,0.079-0.407,1.337-1.466,2.753
			c-0.978,1.022-2.118,2.045-3.258,2.91c-2.117,2.044-3.909,3.224-6.922,3.696c-3.99,0.314-5.212-1.652-5.538-5.427
			c0-0.394-0.245-0.865-0.245-1.101c-3.665,4.089-9.772,8.414-15.473,8.414c-1.873,0-3.665-0.472-5.212-1.572
			c-3.339-2.596-6.108-8.337-6.108-12.505c0-2.831,0.896-5.819,2.28-8.1c0.733-1.101,3.502-6.606,5.049-7.471
			c0.651-0.472,0.163-0.55-0.733-0.55c-0.733,0-1.792,0.079-2.362,0.079c-5.212,0-8.958-0.393-13.519-0.393
			c-0.488,0.079-0.651,0-0.651-0.236c0-1.101,5.538-5.112,8.307-5.348c3.013-0.314,6.759-0.393,10.668-0.393
			c5.538,0,11.482,0.236,16.125,0.393c0.082-1.101,0.082-2.359,0.407-3.46c0.896-5.819,3.013-10.538,7.003-14.392
			c3.502-3.067,7.736-6.449,12.948-6.449c4.642,0,9.121,3.224,9.284,6.999c0,4.483-0.326,10.381-4.723,13.684
			c-0.163,0.157-0.326,0.236-0.407,0.236c-0.489,0,0.814-3.224,0.814-6.842c0-4.955-4.479-8.1-9.121-8.1
			c-4.316,0-8.469,2.517-9.039,7.078c-0.163,0.708-0.652,10.696-0.652,11.561c0.326-0.157,0.652-0.157,1.14-0.314
			c4.968-1.337,11.157-2.988,16.369-2.988c4.479,0,4.805,4.718,5.049,8.415c3.094-3.775,8.306-7.55,13.437-7.55
			c7.166,0,8.551,6.37,8.551,12.19c0,2.91-0.326,5.741-0.57,7.864c-0.082,1.573-0.814,4.797-0.814,7.236
			c0,1.966,0.57,3.381,2.606,3.381c1.955,0,5.782-1.258,7.492-2.044c2.362-1.102,4.153-3.382,4.561-3.382
			c0.082,0,0.082,0.078,0.082,0.235s-0.082,0.473-0.245,0.944c-3.339,4.562-11.727,9.909-17.509,9.909
			c-3.013,0-4.316-0.787-4.316-3.933c0-2.28,0.733-5.111,0.896-6.37c0.326-2.595,0.733-5.348,0.733-8.021
			c0-3.854-0.733-7.628-3.339-10.696c-0.652-0.708-1.466-1.022-2.443-1.022c-2.606,0-5.863,2.438-7.329,4.483
			c-1.059,1.337-1.303,3.539-1.303,5.662c0,2.045,0.245,4.09,0.245,5.663c-0.082,6.763-0.733,13.684-0.978,20.447
			c-0.081,2.595,0.082,5.426,0.082,8.257c0,3.146-0.244,6.135-1.384,8.729c-0.489,1.573-1.384,3.696-2.769,5.033
			c-2.769,1.888-3.99,2.438-4.479,2.438C187.554,234.44,187.717,233.969,187.717,233.654z M164.589,199.602
			c1.873-1.259,4.805-5.033,4.479-6.371c-0.896-6.055-1.547-10.931-1.547-17.065c0-0.236-0.896-0.393-2.524-0.393
			c-2.117,0-5.293,0.236-8.714,0.629c-5.538,0.079-7.492,6.213-7.492,11.325c0,0.787,0.081,1.573,0.163,2.281
			c0.57,5.033,6.189,10.853,11.564,10.853C161.902,200.859,163.287,200.466,164.589,199.602z"/>
		<path fill="#A57F51" d="M227.868,185.209c1.792-2.281,1.955-2.202,3.665-3.933c0.896-0.786,1.466-0.865,4.805-0.865
			c2.769,0,7.085,0.079,10.913,0.079c4.234,0,7.899-0.157,8.469-0.708c0.57-0.393,0.814-0.708,0.977-0.708
			c0.082,0-0.163,0.393-0.57,1.337c-2.362,4.482-2.85,5.033-6.271,5.033c-4.724,0-12.623,0.472-17.509,0.472
			C229.252,185.917,227.379,185.76,227.868,185.209z"/>
		<path fill="#A57F51" d="M254.171,205.264c-1.059-0.551,0.407-1.102,4.398-1.494l1.954-0.314c2.524-0.708,3.095-5.584,3.095-11.876
			v-3.224l0.082-44.591l0.082-3.854c0-4.876-0.733-7.471-2.199-7.786l-2.117-0.393c-3.665-0.629-5.049-0.944-3.746-1.258
			c0.489-0.157,1.059-0.236,1.71-0.236c1.71,0,3.827-0.079,6.189-0.157l4.316-0.079c2.362,0,4.235,0,5.538,0.079l8.877,0.079
			c8.469,0,14.414,2.281,17.753,6.842c1.222,1.573,1.955,4.326,1.955,7.393c0,3.225-0.733,5.898-2.118,8.022
			c-3.094,4.482-7.329,7.235-8.144,7.235c-0.407,0,0.407,0.551,2.443,1.573c4.56,2.438,7.98,4.404,10.342,6.685
			c3.99,3.854,6.108,8.965,6.108,14.313c0,13.763-12.623,21.784-25.734,22.571c-3.339,0.235-7.655,0.393-12.949,0.393
			L254.171,205.264z M277.055,159.257c1.303-0.079,2.443-0.157,3.501-0.157c8.225-0.314,15.555-2.124,15.555-11.167
			c0-6.056-4.724-11.482-11.157-13.448c-3.665-1.18-6.352-1.809-8.225-1.809c-1.547,0-2.524,0.472-3.013,1.337
			c-1.384,2.831-1.792,11.01-1.873,20.211v1.573c0,3.067,0.244,3.539,2.769,3.539L277.055,159.257z M290.167,199.208
			c7.411-3.067,10.831-6.921,10.831-14.549c0-8.808-2.851-15.571-11.727-20.683c-1.71-0.944-3.502-1.416-5.456-1.416l-2.769,0.079
			h-2.932c-2.199,0.079-3.828,0.157-4.968,0.393c-1.221,0.472-1.14,4.247-1.14,5.033c-0.081,2.438-0.163,7.628-0.163,15.571v14.313
			c0,2.517,0.326,2.989,3.095,3.382C281.778,201.567,286.013,200.859,290.167,199.208z"/>
		<path fill="#A57F51" d="M355.154,199.208c-1.629-4.168-2.851-9.673-2.851-14.077c0-4.326,0.896-11.01,5.619-12.977
			c0.896-0.314,2.199-0.708,3.99-1.258c-3.583,0.393-7.329,0.629-10.912,0.629c-1.385,0.079-2.524,0.157-3.421,0.157
			c-1.221,0-2.361-0.079-3.583-0.236c2.524,2.674,3.828,6.763,3.828,12.189c0,9.28-7.981,21.863-18.649,21.863
			c-0.978,0-2.036-0.157-3.258-0.393c-7.329-1.73-9.935-14.077-9.935-20.369c0-8.729,6.922-15.807,16.043-16.358l3.746-0.314
			l1.873-0.079c1.384,0,3.095,1.022,3.339,1.101c0.569,0.079,1.466,0.236,2.85,0.55c2.606,0.708,5.375,0.944,8.062,0.944
			c5.131,0,10.505-0.708,15.473-1.809c1.385-0.55,2.932-0.786,4.643-0.786c7.41,0,12.134,5.741,12.134,12.662
			c0,6.37-2.199,13.212-6.515,18.009c-3.258,3.696-8.633,7.078-13.274,7.078C360.04,205.735,356.538,203.14,355.154,199.208z
			 M340.17,196.141c0.244-1.022,0.407-2.359,0.57-4.09c0-0.55,0.081-1.337,0.162-2.358c0.082-1.259,0.163-2.281,0.163-2.989
			c0-4.011-0.978-7.471-3.013-10.302c-1.629-2.281-5.294-4.168-8.633-4.168c-3.583,0-7.98,1.966-7.98,5.898
			c0,0.865,0.163,1.809,0.407,2.831c0.244,1.18,0.325,1.966,0.325,2.517c0.245,4.326,1.06,8.415,2.525,12.111
			c1.384,3.775,3.99,5.663,7.654,5.663C335.69,201.253,339.519,199.522,340.17,196.141z M371.197,200.859
			c4.967-1.258,7.166-5.819,7.166-11.403c0-7.157-3.665-16.515-12.378-16.515c-4.968,0-7.736,2.202-7.736,7.078
			c0,1.101,0.081,2.124,0.244,3.067c0.081,0.865,0.163,1.416,0.163,1.809c0.406,4.641,1.14,7.629,3.176,10.853
			c2.035,3.461,4.886,5.349,7.736,5.349C370.139,201.096,370.627,201.017,371.197,200.859z"/>
		<path fill="#A57F51" d="M391.476,200.78v-15.886l0.082-6.685c0.081-1.416,0.081-3.539,0.081-6.37
			c0-11.954-0.163-21.627-0.57-29.02c-0.081-3.225-2.28-4.562-5.13-5.505c-0.896-0.394-1.385-0.629-1.385-0.865
			c0-0.472,1.547-1.337,4.724-2.595l2.688-1.18c2.28-0.944,3.99-1.73,5.049-2.438c1.873-0.865,2.932-1.337,3.257-1.337
			c0.326,0,0.489,0.157,0.489,0.55c0,0.157-0.163,0.787-0.489,1.966c-0.896,2.831-1.221,4.168-1.303,6.606
			c0,8.572-0.081,13.841-0.163,15.729c0,0.629-0.081,1.73-0.081,6.842c0,1.966-0.081,4.719-0.163,8.258
			c-0.081,3.696-0.163,6.37-0.163,8.1v5.977c0.57-0.236,2.118-0.394,2.77-0.629c4.153-1.18,5.7-2.674,7.899-6.134
			c0.325-0.55,0.488-1.18,0.488-2.044c0-0.708-2.117-2.202-2.117-2.202c0-0.079,0.325-0.157,0.896-0.157
			c2.28,0,3.095-0.551,4.153-1.73c0.978-0.944,1.547-1.416,3.095-1.416c1.303,0,1.954,0.551,1.954,1.73
			c0,3.775-5.456,8.572-8.469,10.459c-0.489,0.314-2.77,1.18-2.118,1.494c3.502,1.888,4.724,3.932,6.353,7.943
			c1.547,3.618,4.886,10.617,9.446,10.617c1.304,0,2.28-0.551,3.99-1.573c0.814-0.55,1.385-0.864,1.711-0.943
			c0.488-0.079,0,0.472-1.466,1.651s-3.095,2.281-4.968,3.303c-1.873,1.022-3.339,1.416-4.479,1.259
			c-2.361-0.314-3.502-0.865-4.805-2.123c-2.28-2.124-3.339-4.247-5.212-8.337c-2.524-5.583-4.234-8.493-8.795-10.302l-0.163-0.079
			c-0.244,0.079-0.325,0.394-0.325,1.022l0.081,2.674c0,5.348,0.081,8.494,0.978,10.46c0.732,1.572,1.791,2.359,3.339,2.359
			c1.059,0,2.198-0.394,3.257-1.102c0.57-0.078,0.326,0.236-0.732,1.102s-2.036,1.494-2.769,2.045
			c-2.851,1.887-5.212,2.831-7.085,2.831C392.941,205.106,391.72,203.69,391.476,200.78z"/>
		<path fill="#A57F51" d="M486.758,205.342c-4.397,0-6.026-0.314-4.805-0.943l2.85,0.078c1.304,0,1.873-0.314,2.28-1.651
			c0.407-1.18,0.896-4.876,1.466-11.167c0.489-6.213,0.733-11.561,0.733-15.886c0-4.011-0.244-6.056-0.814-6.056l-5.7,0.315
			c-1.466,0.079-3.258,0.157-5.457,0.157c-1.221,0-2.85-0.079-5.049-0.157c-2.361-0.079-4.479-0.158-6.271-0.158h-3.99
			c-3.502,0-5.375,0.079-5.375,0.629l-0.081,13.527c0,7.235,0.244,13.37,0.732,18.403c0.163,1.494,2.77,1.258,4.316,1.651
			c1.71,0.235,2.606,0.393,2.606,0.472c0,0.157-1.873,0.236-5.619,0.236h-3.014c-1.303,0-2.851-0.079-4.071,0
			c-0.814,0-1.548,0-2.118,0.078l-4.805,0.079c-3.013,0-4.479-0.157-4.479-0.394c0-0.157,0.244-0.314,0.732-0.472
			c2.851-0.236,4.479-0.629,4.887-1.259c1.954-3.382,2.932-13.841,2.932-31.221v-3.618c-0.081-3.539-0.326-9.123-0.733-16.672
			l-0.488-9.673c-0.244-4.797-0.732-8.101-2.932-9.28c-0.407-0.236-1.059-0.394-1.792-0.394c-0.732,0-1.221-0.079-1.628-0.708
			c-0.407-0.629,1.873-0.629,5.13-0.629l5.375,0.157c1.059,0.079,3.583-0.157,4.479-0.157c1.873-0.079,3.095-0.157,3.828-0.157
			c1.384,0,2.036,0.157,2.036,0.393c-0.407,0.394-0.978,0.629-1.792,0.865c-1.059,0.314-1.547,0.629-1.873,2.202
			c-0.326,1.809-0.651,4.719-0.896,8.651l-0.163,2.674l-0.57,6.134l-0.244,5.19c0,2.517-0.081,4.955-0.244,7.235
			c-0.082,0.708,4.642,1.101,11.401,1.101c4.805,0,9.609-0.157,14.251-0.472c4.642-0.236,6.922-0.55,6.678-0.865l0.081-11.561
			c0-2.123,0.082-5.426,0.163-9.909c0.081-3.381,0.163-5.977,0.163-7.943c-0.244-0.236-1.059-0.787-2.443-1.573
			c-0.896-0.394-1.71-0.865-1.71-1.18c0-0.236,0.244-0.314,0.814-0.314c2.688-0.158,5.7-0.236,9.121-0.236
			c5.293,0,9.202,0.315,9.202,0.865c0,0.236-1.222,0.551-3.583,1.022c-2.28,0.393-2.688,3.146-2.932,7.628l-0.163,1.651
			c-0.326,3.146-0.489,7.078-0.489,11.718l0.082,6.92c0.081,1.494,0.081,3.696,0.081,6.685v8.887c0,4.326,0.082,8.258,0.163,11.954
			l0.407,13.37c0,2.28,0.651,2.595,2.851,2.752c1.547,0.236,2.361,0.394,2.361,0.473c0,0.314-3.176,0.472-9.528,0.472
			L486.758,205.342z"/>
		<path fill="#A57F51" d="M528.698,205.656c-1.547-0.314-2.036-4.246-2.036-7.785c-0.488,0.393-1.466,0.943-2.85,1.73
			c-1.222,0.707-1.873,1.101-1.955,1.179c-4.479,2.753-7.085,4.169-9.609,4.169c-1.547,0-2.932-0.63-4.153-1.81
			c-2.036-1.966-2.605-4.325-3.176-8.336c-0.081-0.708-0.163-1.494-0.407-2.517c-0.407-2.123-0.651-5.898-0.651-11.403
			c0-3.696,0.732-6.37,2.769-7.943c1.385-1.18,2.524-1.337,4.887-1.652c0.813-0.079,1.791-0.236,2.932-0.472
			c3.501-0.944,7.085-1.73,10.749-1.73c1.548,0,3.258-0.157,5.131-0.472l2.85-0.314c1.06-0.079,1.629,2.517,1.629,7.786
			c0,1.966-0.325,5.427-0.977,10.224c-0.57,4.404-0.814,7.393-0.814,8.965c0,1.967,0.244,3.146,0.814,3.696
			c1.303,0.865,1.873,1.18,2.769,1.18s2.117-0.472,3.664-1.337c0.733-0.393,2.036-1.337,3.991-2.752
			c1.221-1.022,1.873-1.494,2.117-1.494s-0.489,0.786-2.117,2.358c-2.524,2.438-5.701,4.641-8.714,6.449
			c-2.851,1.888-3.99,2.438-5.538,2.438C529.757,205.813,529.35,205.735,528.698,205.656z M527.477,194.726l0.488-6.37
			c0.326-3.304,0.57-6.685,0.57-9.988c0-3.46-0.896-4.64-4.723-4.64c-1.222,0-2.932,0.236-5.131,0.787
			c-0.488,0.079-1.629,0.393-3.502,0.787c-3.827,0.786-5.375,2.988-5.375,6.685c0,4.562,0.896,8.887,3.095,12.898
			c1.222,2.359,2.688,4.089,5.538,4.089C520.718,198.972,527.313,197.478,527.477,194.726z"/>
		<path fill="#A57F51" d="M546.046,202.59c0-0.394,0.081-1.259,0.325-2.753c0.326-1.966,0.489-3.696,0.489-5.111
			c0-4.562-0.082-9.123-0.326-13.685c-0.407-4.089-0.732-5.269-1.71-5.819c-0.488-0.236-1.303-0.394-2.443-0.394l-3.257,0.079
			c-0.733,0-0.651-0.393,0.407-1.18c1.059-0.786,2.198-1.494,3.583-2.202l4.397-2.045c0.244-0.079,0.978-0.472,2.361-1.18
			c1.304-0.708,2.28-1.022,2.932-1.022c0.489,0,0.651,0.236,0.489,0.787l-0.163,2.202c-0.244,1.337-0.326,2.517-0.326,3.539
			c0,0.787,0.082,1.18,0.326,1.101c2.688-0.786,6.107-2.988,6.841-3.46c3.664-2.281,5.863-3.539,8.144-3.539
			c5.944,0,5.944,6.999,5.944,11.167c0,2.202-0.244,4.876-0.651,7.943c-0.081,1.179-0.814,5.663-1.222,11.088
			c-0.081,1.573,0.326,3.382,1.548,3.382c1.059,0,3.013-1.022,4.397-1.887c0.244-0.079,1.384-0.865,1.629-0.865
			c0.081,0.078,0.081,0.235,0,0.472c-2.036,2.595-6.841,5.662-10.18,5.662c-2.117,0-3.014-1.415-2.688-4.247l0.407-4.011
			c0.163-1.887,0.244-3.696,0.244-5.348c0.081-0.393,0.081-0.943,0.081-1.651c0.082-1.887,0.163-3.539,0.163-4.955
			c0-6.527-1.303-11.01-6.188-11.01c-2.606,0-4.398,0.708-7.899,2.832c-1.059,0.629-1.222,2.123-1.222,4.404v2.595l-0.163,4.797
			v3.382c0,2.438,0,4.482,0.081,6.213c0.082,1.966,0.407,2.831,1.466,2.909c1.548-0.078,2.688-0.55,3.991-1.179
			c0.569-0.236,0.732-0.158,0.488,0.235c-2.199,1.73-7.166,5.584-10.18,5.584C546.778,205.421,546.046,204.477,546.046,202.59z"/>
		<path fill="#A57F51" d="M587.416,202.511c-3.828-4.168-6.108-9.752-6.108-15.964c0-3.225,1.466-5.427,4.806-9.595
			c1.547-1.887,2.605-3.382,3.339-4.483c0.244-0.393,0.325-0.708,0.325-1.022c0-0.865-0.488-1.18-2.769-2.753
			c-2.851-1.887-5.049-3.381-7.736-6.212c-3.502-3.382-8.796-8.729-8.796-13.605c0-0.944,0.163-1.809,0.57-2.517
			c0.244-0.394,0.489-1.022,0.896-1.888c1.466-3.618,2.361-5.112,2.605-4.404c0.733,1.809,1.141,2.91,1.466,3.854
			c0.733,1.966,1.141,3.146,1.222,3.46c3.909,10.381,13.844,17.852,27.199,25.795c5.294,3.146,6.841,5.977,6.841,9.988
			c0,7.314-3.013,15.572-9.121,20.132c-2.361,1.81-4.805,2.675-7.329,2.675C592.058,205.972,589.614,204.792,587.416,202.511z
			 M606.961,190.714c0.081-0.235,0.081-0.629,0.081-1.179c0-3.382-2.606-7.472-6.922-10.854c-3.828-2.91-5.701-4.168-7.085-4.168
			c-1.548,0-2.443,1.258-4.153,4.797c-0.978,2.044-1.466,4.325-1.466,6.92c0,4.798,1.873,9.595,6.107,12.977
			c0.978,0.786,2.117,1.18,3.502,1.18C601.26,200.388,605.739,196.455,606.961,190.714z"/>
	</g>
	<g>
		<path fill="#A57F51" d="M138.645,102.59c-2.149,0-2.955-0.057-2.388-0.17c0.358-0.084,1.164-0.113,1.612-0.283
			c0.209-0.085,0.358-0.198,0.388-0.396c0.686-2.802,1.134-6.454,1.164-9.624l0.12-9.058c0-3.878-0.03-5.831-0.12-5.831
			c-1.194,0-6.357,0.368-7.163,0.849c-0.388,0.227-0.537,1.047-0.776,2.632c-0.089,0.566-0.149,1.076-0.239,1.076
			c-0.06,0-0.119-0.142-0.179-0.453c-0.089-0.566-0.149-1.076-0.149-1.529c0-0.283,0-0.509,0.03-0.651l0.03-0.906
			c0-0.255,0-0.424,0.03-0.566l0.03-0.934c0-0.425-0.03-0.821-0.089-1.246c-0.03-0.085-0.03-0.227-0.03-0.368
			c0-0.227,0.03-0.34,0.119-0.34c0.09,0,0.239,0.227,0.448,0.708c0.06,0.198,0.507,0.283,1.343,0.283
			c0.955,0,2.447,0.028,4.477,0.057c2.119,0.028,3.671,0.057,4.686,0.057l7.432-0.028c0.955,0,1.343-0.198,1.462-0.368l0.179-0.509
			c0.09-0.283,0.12-0.17,0.09,0.368c-0.03,0.538-0.03,0.962-0.06,1.274c-0.03,0.34-0.06,0.736-0.06,1.217l0.03,2.094
			c0,0.481-0.03,0.736-0.06,0.736s-0.09-0.141-0.149-0.424c-0.03-0.085-0.089-0.368-0.179-0.849
			c-0.12-0.481-0.329-0.906-0.657-1.217c-0.896-0.849-3.701-0.877-4.925-0.877c-0.806,0-1.403,0.057-1.851,0.17
			c-0.269,0.085-0.298,0.538-0.388,2.038l-0.239,3.991c-0.149,2.236-0.209,4.416-0.209,6.51l0.03,1.698l0.269,9.454
			c0.03,0.764,0.687,1.161,2,1.161c0.448,0.056,0.687,0.113,0.687,0.141c0,0.057-0.567,0.085-1.731,0.085L138.645,102.59z"/>
		<path fill="#A57F51" d="M182.582,102.619c-1.612,0-2.208-0.113-1.761-0.339l1.044,0.028c0.478,0,0.687-0.113,0.835-0.595
			c0.149-0.424,0.329-1.755,0.538-4.019c0.179-2.236,0.269-4.161,0.269-5.718c0-1.443-0.09-2.18-0.298-2.18l-2.089,0.113
			c-0.538,0.028-1.194,0.057-2,0.057c-0.448,0-1.044-0.028-1.85-0.057c-0.866-0.028-1.642-0.057-2.298-0.057h-1.462
			c-1.283,0-1.97,0.028-1.97,0.227l-0.03,4.869c0,2.604,0.09,4.812,0.269,6.623c0.06,0.538,1.015,0.453,1.582,0.595
			c0.627,0.085,0.955,0.142,0.955,0.17c0,0.056-0.687,0.084-2.059,0.084h-1.104c-0.478,0-1.044-0.028-1.492,0
			c-0.298,0-0.567,0-0.776,0.028l-1.761,0.028c-1.104,0-1.642-0.057-1.642-0.141c0-0.057,0.09-0.113,0.269-0.17
			c1.045-0.085,1.642-0.227,1.791-0.453c0.716-1.217,1.074-4.981,1.074-11.237v-1.302c-0.03-1.274-0.119-3.283-0.269-6l-0.179-3.481
			c-0.089-1.727-0.269-2.916-1.074-3.34c-0.149-0.085-0.388-0.142-0.657-0.142s-0.448-0.028-0.597-0.254
			c-0.149-0.227,0.687-0.227,1.88-0.227l1.97,0.057c0.388,0.028,1.313-0.057,1.642-0.057c0.687-0.028,1.134-0.057,1.403-0.057
			c0.507,0,0.746,0.057,0.746,0.142c-0.149,0.142-0.358,0.227-0.657,0.311c-0.388,0.113-0.567,0.227-0.687,0.793
			c-0.119,0.651-0.239,1.698-0.328,3.113l-0.06,0.962l-0.209,2.208l-0.09,1.868c0,0.906-0.03,1.783-0.089,2.604
			c-0.03,0.254,1.701,0.396,4.178,0.396c1.761,0,3.522-0.057,5.223-0.17c1.701-0.084,2.537-0.198,2.448-0.311l0.03-4.161
			c0-0.764,0.03-1.953,0.06-3.566c0.03-1.217,0.06-2.151,0.06-2.858c-0.089-0.085-0.388-0.283-0.896-0.566
			c-0.328-0.142-0.626-0.312-0.626-0.424c0-0.085,0.089-0.113,0.298-0.113c0.985-0.057,2.089-0.085,3.343-0.085
			c1.94,0,3.373,0.113,3.373,0.311c0,0.085-0.448,0.198-1.313,0.368c-0.836,0.142-0.985,1.132-1.075,2.746l-0.06,0.594
			c-0.12,1.132-0.179,2.548-0.179,4.218l0.03,2.491c0.03,0.538,0.03,1.331,0.03,2.406v3.199c0,1.557,0.03,2.972,0.06,4.302
			l0.149,4.812c0,0.821,0.239,0.934,1.045,0.991c0.567,0.085,0.865,0.141,0.865,0.169c0,0.113-1.164,0.17-3.492,0.17
			L182.582,102.619z"/>
		<path fill="#A57F51" d="M222.879,103.043c-0.03-0.368-0.329-0.453-1.97-0.595c-0.328-0.028-1.015-0.057-2.119-0.057l-3.373,0.028
			c-1.194,0-1.97,0-2.357-0.028c-0.478,0-1.224-0.028-3.104-0.028c-1.224,0-2.626,0.028-4.178,0.084
			c-0.209,0.028-0.418,0.028-0.627,0.028c-0.089,0-0.149,0-0.149-0.028s0.239-0.084,0.687-0.169
			c0.179-0.028,0.447-0.085,0.806-0.113c1.044-0.113,1.642-0.255,1.791-0.708c0.06-0.141,0.089-1.188,0.089-3.085v-1.302
			l0.239-11.095c0.03-0.708,0-2.01-0.06-3.85c-0.06-1.84-0.12-3.396-0.179-4.67c-0.03-0.708-0.716-0.849-2.03-0.962
			c-0.447-0.028-0.746-0.085-0.925-0.113c-0.388-0.113-0.597-0.198-0.597-0.255c0-0.169,1.373-0.254,4.119-0.254l4.298,0.028
			c1.194,0,2.239-0.028,3.134-0.085c1.552-0.057,2.478-0.085,2.776-0.085l2.298-0.028c0.985,0,1.433-0.198,1.642-0.651
			c0.089-0.312,0.119-0.453,0.149-0.453s0.03,0.51-0.06,1.5c-0.03,0.255-0.06,0.453-0.06,0.566c-0.03,0.227-0.03,0.509-0.03,0.849
			v0.962c0,0.594-0.03,1.132-0.09,1.642c-0.03,0.283-0.06,0.425-0.119,0.425c-0.03,0-0.09-0.198-0.12-0.595
			c-0.06-0.368-0.119-0.623-0.149-0.736c-0.567-1.047-1.851-1.5-2.806-1.557c-0.478-0.028-1.164-0.028-2.089-0.028h-4.984
			c-0.597,0-0.746,0.651-0.746,1.812l0.03,2.292l-0.06,4.104c0,1.727,0.119,2.349,0.567,2.377l1.821,0.057
			c1.791,0.085,3.104,0.113,3.939,0.113c2.298,0,3.671-0.198,4.089-0.566c0.269-0.255,0.508-0.623,0.717-1.104
			c0.208-0.481,0.298-0.708,0.328-0.708s0.06,0.481,0.06,1.443c0,0.368-0.03,0.764-0.089,1.132c-0.03,0.311-0.09,0.708-0.09,1.273
			c0,0.17,0.03,0.396,0.06,0.708c0.03,0.084,0.03,0.169,0.03,0.311c0,0.17-0.03,0.255-0.12,0.255c-0.149,0-0.925-0.566-1.492-0.708
			c-0.836-0.227-1.403-0.283-2.567-0.312l-3.671-0.142c-0.269-0.028-0.657-0.028-1.164-0.028s-0.896,0-1.164,0.028
			c-0.985,0.057-0.985-0.028-1.104,1.047c-0.239,2.066-0.358,4.302-0.358,6.737c0,1.132,0.03,2.236,0.089,3.283l5.582-0.028
			c1.313,0,4.835-0.085,5.492-1.472c0.149-0.312,0.298-0.934,0.507-1.925c0.03-0.255,0.089-0.425,0.119-0.538
			c0.03,0,0.03,0.396-0.03,1.189l-0.089,2.462c0,0.68-0.03,1.359-0.09,2.01c-0.089,0.679-0.149,1.019-0.238,1.019
			C222.998,103.751,222.938,103.524,222.879,103.043z"/>
		<path fill="#A57F51" d="M270.132,102.477l-3.104-0.028l-2.507,0.028c-1.283,0-1.88-0.085-1.761-0.311
			c0.03-0.057,0.298-0.113,0.776-0.142c1.433-0.142,2.269-0.283,2.298-1.189l0.179-17.011c0-2.972-0.09-5.208-0.269-6.68
			c-0.03-0.311-0.507-0.481-1.433-0.481c-0.597,0-1.104,0.057-1.462,0.057c-0.269,0-0.418-0.028-0.418-0.113
			c0-0.057,0.09-0.142,0.299-0.255c1.044-0.311,1.97-0.481,2.746-0.481l1.045,0.028l0.895-0.057
			c0.746-0.085,1.612-0.142,2.567-0.142l1.91,0.028c1.104,0.028,2.06,0.057,2.806,0.057c3.402,0,7.432,2.208,8.984,4.755
			c1.641,2.632,2.656,4.981,2.686,7.359c0.03,1.614-0.09,3.17-0.388,4.67c-0.896,4.699-5.462,8.492-10.655,9.567
			c-1.402,0.311-2.328,0.368-3.611,0.368C271.058,102.505,270.52,102.505,270.132,102.477z M281.951,94.297
			c0.627-1.67,0.896-2.887,0.896-4.5c0-0.962-0.089-1.981-0.239-3.057c-0.567-4.161-2.03-7.444-5.402-9.228
			c-1.104-0.594-1.94-0.679-3.88-0.792l-1.343-0.028c-1.582,0-2.388,0.142-2.388,0.424l-0.417,20.719l-0.06,1.925
			c0,0.821,0.179,1.104,0.597,1.189c0.776,0.198,1.671,0.255,2.477,0.255C276.459,101.204,280.25,98.826,281.951,94.297z"/>
		<path fill="#A57F51" d="M305.295,102.449c-1.283,0.142-1.671,0.113-1.224-0.028c0.329-0.084,0.716-0.113,0.866-0.113
			c0.626-0.028,0.865-0.113,1.015-0.708c0.328-1.557,0.448-3.227,0.448-4.812c0-0.651,0-1.161-0.03-1.472
			c0-0.481-0.03-1.188,0-2.094c0.089-2.887,0.119-7.189,0.119-12.936c0-0.312,0-0.566,0.03-0.764l0.03-0.934
			c0-1.444-0.328-2.35-1.433-2.435c-0.865-0.057-1.313-0.113-1.313-0.198s0.687-0.142,2.06-0.142c0.686,0,1.194,0,1.552,0.028
			c0.209,0.028,0.478,0.028,0.836,0.028l1.104-0.028c0.597-0.028,1.074-0.057,1.463-0.057c0.328,0,0.478,0.028,0.478,0.113
			c0,0.113-0.418,0.254-0.807,0.254c-0.835,0-0.775,1.274-0.775,1.614c-0.149,2.349-0.239,4.84-0.239,7.5
			c0,0.765-0.029,2.265-0.119,4.5c-0.149,3.736-0.209,6.482-0.209,8.208c0,0.821,0.03,1.67,0.119,2.576l0.061,1.217
			c0.029,0.198,0.298,0.312,0.835,0.396c0.508,0.085,0.807,0.142,0.866,0.17c0,0.028-0.149,0.056-0.478,0.056
			c-0.329,0.028-0.776,0.028-1.344,0.028l-2.805-0.028L305.295,102.449z"/>
		<path fill="#A57F51" d="M338.935,102.279c-4.745-0.057-8.596-3.708-9.849-8.548c-0.448-1.727-0.657-3.283-0.657-4.67
			c0-4.161,1.731-7.557,5.641-10.501c2.388-1.812,5.134-2.802,7.909-2.689c2.896,0.113,5.433,0.594,6.775,1.16
			c0.269,0.113,0.418-0.084,0.657-0.594c0.089-0.255,0.208-0.255,0.298-0.057c0.06,0.142,0.09,0.396,0.09,0.821l-0.03,1.189
			c-0.029,0.453-0.06,0.821-0.06,1.076c0,0.283,0,0.509-0.029,0.651c0,0.227,0,2.208-0.299,2.208c-0.149,0-0.269-0.68-0.358-2.01
			c-0.029-0.764-0.566-1.104-1.611-1.67c-2.029-1.132-3.73-1.614-5.97-1.614c-0.447,0-0.806,0-1.044,0.028
			c-2.687,0.17-6.357,1.953-7.253,5.888c-0.447,1.84-0.656,3.651-0.656,5.491c0,0.934,0.06,1.868,0.179,2.774
			c0.537,4.189,1.671,7.699,6.118,9.341c1.522,0.566,3.104,0.708,5.283,0.708c2.06,0,3.134-0.255,3.164-0.792
			c0.029-0.368,0.06-1.444,0.089-3.284c0.03-1.84,0.03-3.68,0.03-5.52c0-2.859-0.03-4.274-0.119-4.274l-2.03-0.085
			c-0.238,0-0.566,0.028-1.015,0.057c-0.687,0.028-0.865,0.028-0.597-0.17c1.074-0.453,1.82-0.594,2.984-0.509l1.463,0.057
			c0.597,0.028,1.581,0,1.939,0c0.448,0,0.657,0.028,0.657,0.085c0,0.028-0.061,0.057-0.209,0.113
			c-0.537,0.226-0.537,5.038-0.537,5.774v8.067c0,0.991,0.865,0.849,1.044,0.934c0.299,0.17-0.687,0.312-2.925,0.396
			c-2.269,0.113-4.745,0.17-7.401,0.17H338.935z"/>
		<path fill="#A57F51" d="M370.546,102.449c-1.283,0.142-1.671,0.113-1.224-0.028c0.328-0.084,0.717-0.113,0.865-0.113
			c0.627-0.028,0.866-0.113,1.016-0.708c0.328-1.557,0.447-3.227,0.447-4.812c0-0.651,0-1.161-0.03-1.472
			c0-0.481-0.029-1.188,0-2.094c0.09-2.887,0.12-7.189,0.12-12.936c0-0.312,0-0.566,0.029-0.764l0.03-0.934
			c0-1.444-0.328-2.35-1.433-2.435c-0.866-0.057-1.313-0.113-1.313-0.198s0.687-0.142,2.06-0.142c0.687,0,1.193,0,1.552,0.028
			c0.209,0.028,0.478,0.028,0.836,0.028l1.104-0.028c0.597-0.028,1.074-0.057,1.462-0.057c0.328,0,0.478,0.028,0.478,0.113
			c0,0.113-0.418,0.254-0.806,0.254c-0.836,0-0.776,1.274-0.776,1.614c-0.148,2.349-0.238,4.84-0.238,7.5
			c0,0.765-0.03,2.265-0.119,4.5c-0.149,3.736-0.209,6.482-0.209,8.208c0,0.821,0.029,1.67,0.119,2.576l0.06,1.217
			c0.03,0.198,0.299,0.312,0.836,0.396c0.507,0.085,0.806,0.142,0.865,0.17c0,0.028-0.149,0.056-0.478,0.056
			c-0.328,0.028-0.775,0.028-1.343,0.028l-2.806-0.028L370.546,102.449z"/>
		<path fill="#A57F51" d="M402.246,102.59c-2.149,0-2.955-0.057-2.388-0.17c0.357-0.084,1.163-0.113,1.611-0.283
			c0.209-0.085,0.358-0.198,0.388-0.396c0.687-2.802,1.135-6.454,1.164-9.624l0.119-9.058c0-3.878-0.029-5.831-0.119-5.831
			c-1.193,0-6.357,0.368-7.163,0.849c-0.388,0.227-0.537,1.047-0.775,2.632c-0.09,0.566-0.149,1.076-0.239,1.076
			c-0.06,0-0.119-0.142-0.179-0.453c-0.09-0.566-0.149-1.076-0.149-1.529c0-0.283,0-0.509,0.029-0.651l0.03-0.906
			c0-0.255,0-0.424,0.03-0.566l0.029-0.934c0-0.425-0.029-0.821-0.09-1.246c-0.029-0.085-0.029-0.227-0.029-0.368
			c0-0.227,0.029-0.34,0.119-0.34s0.239,0.227,0.448,0.708c0.06,0.198,0.507,0.283,1.343,0.283c0.955,0,2.447,0.028,4.477,0.057
			c2.119,0.028,3.671,0.057,4.687,0.057l7.432-0.028c0.955,0,1.343-0.198,1.462-0.368l0.18-0.509
			c0.089-0.283,0.119-0.17,0.089,0.368c-0.029,0.538-0.029,0.962-0.06,1.274c-0.029,0.34-0.06,0.736-0.06,1.217l0.03,2.094
			c0,0.481-0.03,0.736-0.061,0.736c-0.029,0-0.089-0.141-0.148-0.424c-0.03-0.085-0.09-0.368-0.18-0.849
			c-0.119-0.481-0.328-0.906-0.656-1.217c-0.896-0.849-3.701-0.877-4.925-0.877c-0.806,0-1.402,0.057-1.851,0.17
			c-0.269,0.085-0.298,0.538-0.388,2.038l-0.239,3.991c-0.148,2.236-0.209,4.416-0.209,6.51l0.03,1.698l0.269,9.454
			c0.03,0.764,0.687,1.161,2,1.161c0.447,0.056,0.687,0.113,0.687,0.141c0,0.057-0.567,0.085-1.731,0.085L402.246,102.59z"/>
		<path fill="#A57F51" d="M445.078,102.647c-0.209-0.028-0.299-0.057-0.299-0.085s0.687-0.198,1.045-0.396
			c0.18-0.085,0.269-0.227,0.269-0.396c0-0.849-0.328-2.462-0.984-4.84c-0.149-0.481-0.389-1.302-0.687-2.435
			c-0.328-1.104-0.627-2.179-0.926-3.17l-0.566-2.038c-0.061-0.312-0.448,0.34-0.567,0.453c-0.806,1.047-1.403,1.699-2.149,1.67
			c-1.224-0.028-2.148-0.312-2.775-0.821c-0.627-0.509-1.104-0.99-1.373-1.472c-0.269-0.453-0.447-0.679-0.478-0.679
			c-0.119,0-0.209,0.821-0.358,2.179l-0.269,2.038c-0.148,0.934-0.269,1.84-0.357,2.689c-0.03,0.651-0.149,1.161-0.18,1.5
			c-0.179,1.104-0.269,2.038-0.269,2.83v2.151c0,0.312,0.537,0.396,1.403,0.481l0.656,0.113l0.239,0.085
			c0,0.028-0.149,0.057-0.418,0.057h-0.598c-0.507-0.028-0.925-0.028-1.193,0c-0.239,0.028-0.447,0.057-0.597,0.057l-1.104-0.057
			c-0.836-0.085-1.672-0.113-2.507-0.113c-0.239,0-0.448,0-0.627,0.028l-1.074,0.028c-0.299,0-0.448-0.028-0.448-0.057
			c0.06-0.028,0.149-0.084,0.299-0.113c1.164-0.113,1.97-0.227,2.477-1.274c0.448-0.821,0.598-1.528,0.955-3
			c0.09-0.368,0.18-0.821,0.329-1.358c0.148-0.453,0.328-1.217,0.537-2.293c0.06-0.198,0.119-0.509,0.209-0.934
			c0.388-1.812,1.074-4.642,2.119-8.463c0.298-1.104,0.626-2.689,1.015-4.727l0.357-1.953c0.03-0.227,0.329-1.019,0.329-1.5
			c0-0.283-0.09-0.481-0.239-0.623c-0.06-0.057-0.388-0.057-0.955,0.028c-0.209,0-1.074,0.085-0.984-0.028
			c0.357-0.339,1.312-0.396,2.775-0.396h1.313c0.238,0,0.507,0,0.865,0.028l2.418,0.057c0.328,0.028,0.626,0.028,0.835,0.028
			c0.299,0,0.657,0,1.075,0.028c0.417,0.028,0.507,0.057,0.298,0.113c-0.029,0-0.238,0-0.597,0.028
			c-0.358,0.028-0.537,0.113-0.508,0.312c0.09,0.538,0.239,1.189,0.448,1.953l0.209,0.764c0.238,0.962,0.566,2.038,0.955,3.227
			c0.507,1.585,0.865,2.802,1.044,3.623c0.149,0.708,0.478,1.84,0.598,2.264c0.298,0.991,0.507,1.812,0.656,2.434
			c0.508,1.783,0.925,3.199,1.254,4.189l0.418,1.443c0.298,1.104,1.581,5.633,2.716,5.831c0.775,0.142,1.164,0.254,1.164,0.283
			c0,0.057-0.389,0.085-1.164,0.085h-0.955c-0.926,0-1.582,0.028-2.029,0.057c-0.448,0.057-1.075,0.085-1.94,0.085H445.078z
			 M442.541,87.957c-0.238-0.651-0.537-1.755-0.896-3.283l-0.269-1.019c-0.148-0.566-0.447-1.387-0.835-2.491
			c-0.389-1.104-0.687-1.925-0.836-2.462c-0.149-0.481-0.896-2.208-1.313-2.406c-0.209-0.113-0.388,0.396-0.627,1.302
			c-0.148,0.594-0.298,1.189-0.447,1.727c-0.508,1.896-0.717,2.774-0.717,3.906c0,2.208,1.075,6.481,3.582,7.02
			c0.06,0.028,0.149,0.028,0.269,0.028C441.557,90.278,442.81,88.58,442.541,87.957z"/>
		<path fill="#A57F51" d="M484.003,102.279c0-0.113-0.418-0.17-1.224-0.17l-1.94,0.028l-3.462-0.028
			c-1.194,0-2.656,0.028-4.388,0.113l-1.074,0.057c-1.582,0.085-2.835,0.141-3.701,0.141c-0.865,0-1.313-0.056-1.313-0.141
			c0-0.057,0.12-0.113,0.389-0.17l1.015-0.227c0.388-0.057,0.687-0.142,0.925-0.283c0.598-0.113,0.776-0.538,0.866-1.33
			c0.029-0.396,0.089-1.104,0.119-2.123l0.209-8.774c0.06-2.717,0.09-5.548,0.09-8.492c0-0.708-0.269-4.416-1.075-4.557
			c-0.656-0.085-1.283-0.142-1.91-0.227c-0.627-0.084-0.955-0.141-0.955-0.198c0-0.085,0.836-0.142,2.508-0.198l4.506-0.142
			c0.657-0.057,1.463-0.085,2.418-0.085c0.149,0.028,0.239,0.057,0.239,0.085s-0.985,0.17-1.493,0.368
			c-0.269,0.085-0.388,0.226-0.388,0.368c-0.238,2.944-0.418,7.388-0.537,13.304l-0.09,3.255c-0.089,3.34-0.149,5.378-0.149,6.142
			c0,2.095,0.12,2.18,0.717,2.18c2.687,0,4.806-0.17,7.402-0.821c2.626-0.566,2.954-1.076,3.282-3.51
			c0.12-1.019,0.269-1.727,0.358-1.727c0.03,0,0.03,0.084,0.03,0.283c0,0.538-0.06,1.274-0.18,2.18
			c-0.119,1.047-0.238,1.953-0.357,2.717l-0.18,1.472c-0.149,1.217-0.269,1.812-0.388,1.812
			C484.182,103.581,484.092,103.157,484.003,102.279z"/>
	</g>
</g>
</svg>
