<?xml version="1.0" encoding="utf-8"?>
<!-- Generator: Adobe Illustrator 16.0.0, SVG Export Plug-In . SVG Version: 6.00 Build 0)  -->
<!DOCTYPE svg PUBLIC "-//W3C//DTD SVG 1.1//EN" "http://www.w3.org/Graphics/SVG/1.1/DTD/svg11.dtd">
<svg version="1.1" id="Layer_1" xmlns="http://www.w3.org/2000/svg" xmlns:xlink="http://www.w3.org/1999/xlink" x="0px" y="0px"
	 width="82.167px" height="52.333px" viewBox="0 0 82.167 52.333" enable-background="new 0 0 82.167 52.333" xml:space="preserve">
<g>
	<path d="M3.02,48.285c0-0.108,0.072-0.252,0.252-0.433c0.432-0.611,0.612-1.764,0.684-2.195c0.144-1.08,0.108-1.979,0.108-3.203
		c0-0.864,0.072-2.628,0.072-4.644c0-0.757,0-1.476,0.036-2.231c0.18-3.564,0.252-7.235,0.252-10.871
		c0-3.06-0.072-6.119-0.216-9.143c-0.108-2.412-1.692-2.304-3.78-2.52c-0.18-0.036,1.008-0.792,1.044-0.828
		c0.684-0.324,1.656-0.144,2.375-0.288c1.764-0.324,3.492-0.504,5.328-0.684c0.54-0.036,1.224-0.18,1.872-0.18
		c1.152,0,1.584,0.612,2.483,0.828c0.756,0.144,0.936,1.368,0.936,2.556c0,4.751-2.015,8.099-4.895,11.771
		c-0.9,1.152-2.052,1.439-2.124,2.736c-0.144,2.23-0.216,4.355-0.468,6.551c-0.288,2.412-0.972,4.859-1.26,7.307
		c-0.144,1.296-0.216,2.592-0.648,3.707c-0.432,1.152-1.512,1.873-1.908,1.873C3.092,48.394,3.02,48.356,3.02,48.285z
		 M10.291,21.792c0.396-1.296,0.72-2.664,0.864-4.067c0-0.036,0-0.072,0-0.108l0.036-0.216c0-1.224-0.468-2.592-1.26-3.527
		c-0.612-0.756-0.864-0.72-1.692-0.72H8.095c-0.216,0-0.468,0-0.612,0.18c-0.288,0.576-0.36,1.008-0.36,1.476
		c0,0.396,0.036,0.792,0.036,1.296c0,1.476,0.108,3.384,0.108,4.715c0,0.288-0.252,2.735-0.252,4.319
		c0,0.721,0.108,1.225,0.252,1.26C9.103,26.508,9.931,22.979,10.291,21.792z"/>
	<path d="M26.635,26.147c-0.072-0.432,0.036-0.647-0.252-0.359c-1.8,1.332-4.284,2.771-6.263,2.771c-0.864,0-1.584-0.288-2.16-0.9
		c-1.512-1.619-1.729-5.291-1.943-7.451c-0.037-0.252-0.072-0.54-0.072-0.792c0-3.491,2.916-4.967,5.688-6.083
		c2.159-0.864,3.275-0.684,4.751-4.176c1.764-4.175,6.443-7.091,8.747-7.091c2.556,0,4.823,1.152,4.823,3.923
		c0,1.008-0.324,2.016-0.756,3.06c-0.36,1.008-1.979,2.808-1.8,2.16c0.288-1.152,0.288-1.8,0.288-2.556
		c0-1.908-2.196-3.852-3.888-3.852c-2.16,0-4.752,1.44-5.147,3.456c-0.18,0.936-0.323,1.728-0.323,2.628
		c0,0.612,0.071,1.224,0.215,1.979c2.664-0.864,5.076-1.008,7.487-1.26c2.16-0.324,7.163-0.36,10.619-0.36h1.907
		c0.432,0,1.044-0.036,1.62-0.036c0.864,0,1.62,0.072,1.368,0.324c-1.549,1.979-3.42,2.124-5.508,2.412
		c-1.296,0.144-2.592,0.468-5.111,0.36c-0.504,0-1.115,0.108-1.619,0.288c0.144,0-0.828,2.052-0.864,2.16
		c-0.36,0.72-0.72,1.512-0.756,2.34c-0.252,4.752,3.384,6.947,6.047,6.947c0.181,0,0.396,0,0.576-0.036
		c1.835-0.252,2.231-0.792,2.231-1.548c0-0.54-0.18-1.225-0.18-2.016c0-0.396,0.036-0.792,0.18-1.224
		c0.18-0.504,1.477-1.332,2.34-1.332c0.576,0,0.863,0.468,0.863,1.116c0,0.576-0.252,1.26-0.684,1.799
		c-0.828,1.116-1.836,2.088-2.771,3.096c-1.619,1.512-3.563,2.592-5.436,2.592c-2.016,0-4.247-1.547-5.111-3.312
		c-0.972,1.907-3.814,3.78-6.083,3.78C28.183,28.956,26.958,28.163,26.635,26.147z M26.383,24.492
		c-0.792-4.428-0.937-4.5-0.937-5.543c0-0.612,0.037-1.152,0.037-1.584c0-1.08-0.108-1.691-0.828-1.979
		c-0.288-0.144-0.756-0.18-1.26-0.18c-2.124,0-4.968,0.648-4.968,2.664c0,1.116,0.504,2.448,0.647,3.24
		c0.469,2.447,1.549,4.392,3.996,4.392C24.151,25.5,25.231,24.996,26.383,24.492z M35.669,24.996
		c-0.252-0.576-0.359-1.224-0.359-1.907c0-0.756,0.145-1.548,0.288-2.448c0.432-1.152,0.937-2.124,1.44-3.168
		c0.18-0.252,1.583-3.06,1.583-3.06c-1.655,0-3.312,0.288-5.147,0.216c-1.404-0.036-2.447-0.072-3.203-0.072
		c-0.9,0-1.404,0.036-1.62,0.18c-0.288,0.18-0.323,0.684-0.323,1.583c0,2.268,0.504,6.155,0.611,6.624
		c0.504,2.123,1.979,2.916,3.6,2.916C33.582,25.86,34.698,25.536,35.669,24.996z"/>
	<path d="M61.05,39.179c0.252-2.16,0.324-4.428,0.324-6.66c0-2.088-0.035-4.175-0.035-6.227c0.035-1.764,0.144-3.636,0.252-5.436
		c0-0.432,0.035-0.936,0.035-1.404c0-2.916-1.151-5.184-4.355-5.184c-1.08,0-2.231,0.252-3.239,0.468
		c-0.071,0-0.071,0.216-0.071,0.54c0,1.295,0.323,4.319,0.359,4.751c0.072,1.656,0.432,4.355,2.268,5.147
		c0.396,0.181,0.684,0.252,0.9,0.252c0.576,0,2.987-1.476,2.627-0.792c-0.899,1.872-3.6,3.42-5.688,3.708
		c-0.144,0-0.252,0.036-0.359,0.036c-1.296,0-1.764-0.936-1.943-2.448c-0.324-3.456-0.828-6.983-0.828-10.475
		c0-1.332,0.072-2.627,0.252-3.959c0.324-2.592,0.936-4.104,2.52-6.047c1.584-1.62,3.275-3.167,5.615-3.456
		c0.145-0.036,0.324-0.036,0.504-0.036c1.152,0,2.771,0.468,4.176,2.339c0.359,0.504,0.468,1.404,0.468,1.908
		c0,2.051-0.612,4.283-2.34,5.399c-0.036-0.18-0.036-0.36-0.036-0.54c0-0.828,0.18-1.656,0.18-2.556
		c0-0.504-0.035-1.044-0.252-1.584c-0.611-1.692-3.239-2.88-4.283-2.88c-1.476,0-3.6,2.088-3.779,3.78
		c-0.18,1.152-0.216,2.268-0.216,3.383c0,0.792,0.216,0.972,1.26,0.972c2.304,0,4.392-0.468,6.731-0.468
		c2.016,0,2.34,1.836,2.411,3.456c0-0.432,2.592-1.908,3.024-2.124c1.079-0.648,2.915-1.62,4.391-1.62
		c3.061,0,3.061,5.579,3.061,7.667c0,0.684-0.037,1.368-0.145,2.016c-0.145,0.972-0.217,1.98-0.217,2.988
		c-0.035,0.396-0.107,0.575-0.107,0.756c0,0.107,0.036,0.215,0.252,0.323c0.469,0.324,0.936,0.468,1.404,0.468
		c1.332,0,2.627-1.115,3.562-2.195c0.433-0.469,0.648-1.008,1.225-1.296c0.216,2.34-3.779,5.111-5.688,5.327h-0.107
		c-0.793,0.107-2.196,0.721-2.952,0.721c-0.108,0-0.216,0-0.288-0.037c-0.504-0.18-0.684-0.504-0.684-0.899
		c0-0.612,0.432-1.44,0.468-2.088c0.036-0.252,0.036-0.54,0.036-0.792c0-0.144,0-0.287,0-0.396l-0.036-0.864
		c0-0.107,0-0.252,0-0.396c0-0.143,0-0.323,0-0.467l0.036-0.9c0-1.836-0.252-6.803-2.844-6.803c-0.684,0-1.439,0.288-2.123,0.756
		c-2.34,1.512-2.053,4.284-2.125,6.659c-0.071,3.06-0.287,6.119-0.396,9.107v3.42c0,1.476-0.071,2.916-0.647,4.176
		c-0.252,0.719-0.864,1.691-1.404,2.195c-0.107,0.107-1.656,1.08-1.656,0.756C60.583,40.798,60.942,40.042,61.05,39.179z"/>
</g>
</svg>
