<?xml version="1.0" encoding="utf-8"?>
<!-- Generator: Adobe Illustrator 16.0.0, SVG Export Plug-In . SVG Version: 6.00 Build 0)  -->
<!DOCTYPE svg PUBLIC "-//W3C//DTD SVG 1.1//EN" "http://www.w3.org/Graphics/SVG/1.1/DTD/svg11.dtd">
<svg version="1.1" id="Layer_1" xmlns="http://www.w3.org/2000/svg" xmlns:xlink="http://www.w3.org/1999/xlink" x="0px" y="0px"
	 width="82.458px" height="47.25px" viewBox="0 1.417 82.458 47.25" enable-background="new 0 1.417 82.458 47.25"
	 xml:space="preserve">
<g enable-background="new    ">
	<path d="M3.02,48.284c0-0.107,0.072-0.252,0.252-0.432c0.432-0.613,0.612-1.764,0.684-2.195c0.144-1.08,0.108-1.98,0.108-3.205
		c0-0.863,0.072-2.627,0.072-4.643c0-0.756,0-1.477,0.036-2.232c0.18-3.562,0.252-7.234,0.252-10.871
		c0-3.06-0.072-6.119-0.216-9.143c-0.108-2.412-1.692-2.304-3.78-2.52c-0.18-0.036,1.008-0.792,1.044-0.828
		c0.684-0.324,1.656-0.144,2.375-0.288c1.764-0.324,3.492-0.504,5.328-0.684c0.54-0.036,1.224-0.18,1.872-0.18
		c1.152,0,1.584,0.612,2.483,0.828c0.756,0.144,0.937,1.368,0.937,2.556c0,4.751-2.016,8.099-4.896,11.771
		c-0.9,1.151-2.052,1.44-2.124,2.735c-0.144,2.232-0.216,4.355-0.468,6.551c-0.288,2.412-0.972,4.859-1.26,7.309
		c-0.144,1.295-0.216,2.592-0.648,3.707c-0.432,1.152-1.512,1.871-1.908,1.871C3.092,48.391,3.02,48.356,3.02,48.284z
		 M10.291,21.791c0.396-1.296,0.72-2.664,0.864-4.067c0-0.036,0-0.072,0-0.108l0.036-0.216c0-1.224-0.469-2.592-1.26-3.527
		c-0.612-0.756-0.864-0.72-1.692-0.72H8.095c-0.216,0-0.468,0-0.612,0.18c-0.288,0.576-0.36,1.008-0.36,1.476
		c0,0.396,0.036,0.792,0.036,1.296c0,1.476,0.108,3.384,0.108,4.716c0,0.288-0.252,2.735-0.252,4.319c0,0.72,0.108,1.224,0.252,1.26
		C9.103,26.506,9.931,22.979,10.291,21.791z"/>
	<path d="M26.635,26.146c-0.072-0.432,0.036-0.648-0.252-0.36c-1.8,1.332-4.283,2.771-6.264,2.771c-0.863,0-1.583-0.287-2.159-0.898
		c-1.512-1.621-1.728-5.292-1.944-7.452c-0.035-0.252-0.071-0.54-0.071-0.792c0-3.491,2.915-4.967,5.687-6.083
		c2.16-0.864,3.276-0.684,4.752-4.176c1.764-4.175,6.443-7.091,8.747-7.091c2.556,0,4.823,1.152,4.823,3.923
		c0,1.008-0.324,2.016-0.756,3.06c-0.36,1.008-1.979,2.808-1.8,2.16c0.288-1.152,0.288-1.8,0.288-2.556
		c0-1.908-2.196-3.852-3.888-3.852c-2.16,0-4.751,1.44-5.147,3.456c-0.18,0.936-0.324,1.728-0.324,2.628
		c0,0.612,0.072,1.224,0.217,1.979c2.663-0.864,5.075-1.008,7.486-1.26c2.16-0.324,7.163-0.36,10.62-0.36h1.906
		c0.434,0,1.045-0.036,1.621-0.036c0.863,0,1.619,0.072,1.367,0.324c-1.547,1.979-3.42,2.124-5.508,2.412
		c-1.295,0.144-2.592,0.468-5.111,0.36c-0.504,0-1.116,0.108-1.62,0.288c0.145,0-0.827,2.052-0.863,2.16
		c-0.36,0.72-0.72,1.512-0.756,2.339c-0.252,4.752,3.384,6.947,6.047,6.947c0.18,0,0.396,0,0.576-0.036
		c1.836-0.252,2.23-0.791,2.23-1.548c0-0.539-0.18-1.224-0.18-2.016c0-0.396,0.037-0.792,0.18-1.224
		c0.18-0.504,1.477-1.332,2.34-1.332c0.576,0,0.865,0.468,0.865,1.116c0,0.576-0.252,1.26-0.686,1.8
		c-0.826,1.116-1.834,2.088-2.771,3.096c-1.619,1.512-3.562,2.592-5.435,2.592c-2.016,0-4.247-1.549-5.111-3.312
		c-0.972,1.908-3.815,3.779-6.083,3.779C28.183,28.954,26.959,28.163,26.635,26.146z M26.383,24.49
		c-0.792-4.427-0.936-4.499-0.936-5.543c0-0.612,0.035-1.152,0.035-1.584c0-1.08-0.107-1.691-0.827-1.979
		c-0.288-0.144-0.756-0.18-1.26-0.18c-2.124,0-4.968,0.648-4.968,2.664c0,1.116,0.504,2.448,0.647,3.24
		c0.469,2.447,1.548,4.391,3.996,4.391C24.151,25.498,25.23,24.994,26.383,24.49z M35.67,24.994c-0.252-0.575-0.36-1.224-0.36-1.907
		c0-0.756,0.144-1.548,0.288-2.448c0.432-1.151,0.936-2.124,1.439-3.167c0.181-0.252,1.584-3.06,1.584-3.06
		c-1.655,0-3.312,0.288-5.147,0.216c-1.403-0.036-2.447-0.072-3.203-0.072c-0.9,0-1.404,0.036-1.62,0.18
		c-0.288,0.18-0.324,0.684-0.324,1.583c0,2.268,0.504,6.155,0.612,6.623c0.504,2.124,1.979,2.916,3.6,2.916
		C33.582,25.858,34.697,25.534,35.67,24.994z"/>
	<path d="M61.049,39.176c0.252-2.16,0.324-4.428,0.324-6.658c0-2.088-0.035-4.176-0.035-6.228c0.035-1.764,0.145-3.636,0.252-5.435
		c0-0.433,0.035-0.937,0.035-1.404c0-2.916-1.152-5.184-4.355-5.184c-1.08,0-2.23,0.252-3.238,0.468
		c-0.072,0-0.072,0.216-0.072,0.54c0,1.295,0.324,4.319,0.359,4.751c0.072,1.655,0.432,4.355,2.268,5.147
		c0.396,0.18,0.684,0.252,0.9,0.252c0.576,0,2.986-1.477,2.627-0.792c-0.9,1.871-3.6,3.418-5.688,3.708
		c-0.143,0-0.252,0.035-0.359,0.035c-1.295,0-1.764-0.936-1.943-2.447c-0.324-3.456-0.828-6.983-0.828-10.475
		c0-1.332,0.072-2.627,0.252-3.959c0.324-2.592,0.936-4.104,2.52-6.047c1.584-1.62,3.275-3.167,5.615-3.456
		c0.145-0.036,0.324-0.036,0.504-0.036c1.152,0,2.771,0.468,4.176,2.339c0.359,0.504,0.467,1.404,0.467,1.908
		c0,2.051-0.611,4.283-2.338,5.399c-0.037-0.18-0.037-0.36-0.037-0.54c0-0.828,0.18-1.656,0.18-2.556
		c0-0.504-0.035-1.044-0.252-1.584c-0.611-1.692-3.238-2.88-4.283-2.88c-1.475,0-3.6,2.088-3.779,3.78
		c-0.18,1.152-0.217,2.268-0.217,3.383c0,0.792,0.217,0.972,1.26,0.972c2.305,0,4.393-0.468,6.732-0.468
		c2.016,0,2.34,1.836,2.412,3.456c0-0.432,2.592-1.908,3.023-2.124c1.08-0.648,2.916-1.62,4.391-1.62
		c3.061,0,3.061,5.579,3.061,7.667c0,0.685-0.037,1.368-0.145,2.017c-0.145,0.972-0.217,1.979-0.217,2.987
		c-0.035,0.396-0.107,0.576-0.107,0.756c0,0.107,0.035,0.216,0.252,0.324c0.469,0.323,0.936,0.468,1.404,0.468
		c1.332,0,2.627-1.116,3.562-2.196c0.434-0.468,0.648-1.008,1.225-1.296c0.217,2.34-3.779,5.112-5.688,5.329h-0.107
		c-0.793,0.107-2.195,0.719-2.951,0.719c-0.109,0-0.217,0-0.289-0.035c-0.504-0.18-0.684-0.504-0.684-0.9
		c0-0.612,0.432-1.44,0.469-2.087c0.035-0.252,0.035-0.54,0.035-0.792c0-0.145,0-0.288,0-0.396l-0.035-0.863
		c0-0.108,0-0.252,0-0.396c0-0.144,0-0.324,0-0.468l0.035-0.899c0-1.836-0.252-6.804-2.844-6.804c-0.684,0-1.439,0.288-2.123,0.756
		c-2.34,1.512-2.053,4.283-2.125,6.659c-0.072,3.06-0.287,6.12-0.395,9.108v3.418c0,1.477-0.072,2.916-0.648,4.176
		c-0.252,0.721-0.863,1.691-1.404,2.195c-0.107,0.109-1.656,1.08-1.656,0.756C60.583,40.797,60.942,40.042,61.049,39.176z"/>
</g>
</svg>
