<?xml version="1.0" encoding="utf-8"?>
<!-- Generator: Adobe Illustrator 16.0.0, SVG Export Plug-In . SVG Version: 6.00 Build 0)  -->
<!DOCTYPE svg PUBLIC "-//W3C//DTD SVG 1.1//EN" "http://www.w3.org/Graphics/SVG/1.1/DTD/svg11.dtd">
<svg version="1.1" id="Layer_1" xmlns="http://www.w3.org/2000/svg" xmlns:xlink="http://www.w3.org/1999/xlink" x="0px" y="0px"
	 width="106.25px" height="44.333px" viewBox="0 1.333 106.25 44.333" enable-background="new 0 1.333 106.25 44.333"
	 xml:space="preserve">
<g>
	<path d="M5.04,46.284c0-0.107,0.072-0.252,0.252-0.432c0.432-0.611,0.612-1.764,0.684-2.195c0.144-1.08,0.108-1.98,0.108-3.204
		c0-0.864,0.072-2.628,0.072-4.644c0-0.756,0-1.476,0.036-2.231c0.18-3.563,0.252-7.235,0.252-10.871
		c0-3.06-0.072-6.119-0.216-9.143c-0.108-2.412-1.692-2.304-3.78-2.52c-0.18-0.036,1.008-0.792,1.044-0.828
		c0.684-0.324,1.656-0.144,2.375-0.288c1.764-0.324,3.492-0.504,5.328-0.684c0.54-0.036,1.224-0.18,1.872-0.18
		c1.152,0,1.584,0.612,2.484,0.828c0.756,0.144,0.936,1.368,0.936,2.556c0,4.751-2.016,8.099-4.895,11.771
		c-0.9,1.152-2.052,1.44-2.124,2.736C9.323,29.186,9.251,31.31,9,33.506c-0.288,2.411-0.972,4.859-1.26,7.307
		c-0.144,1.295-0.216,2.592-0.648,3.707c-0.432,1.152-1.512,1.872-1.908,1.872C5.112,46.392,5.04,46.356,5.04,46.284z
		 M12.311,19.792c0.396-1.296,0.72-2.664,0.864-4.067c0-0.036,0-0.072,0-0.108l0.036-0.216c0-1.224-0.468-2.592-1.26-3.527
		c-0.612-0.756-0.864-0.72-1.692-0.72h-0.144c-0.216,0-0.468,0-0.612,0.18c-0.288,0.576-0.36,1.008-0.36,1.476
		c0,0.396,0.036,0.792,0.036,1.296c0,1.476,0.108,3.384,0.108,4.715c0,0.288-0.252,2.736-0.252,4.32c0,0.72,0.108,1.224,0.252,1.26
		C11.123,24.507,11.951,20.979,12.311,19.792z"/>
	<path d="M29.411,26.559c-0.792-0.18-0.9-2.484-0.9-3.563c-0.324,0.252-1.944,1.188-2.124,1.332c-1.656,1.08-3.06,1.908-4.248,1.908
		c-0.684,0-1.26-0.252-1.836-0.828c-1.332-1.368-1.26-3.312-1.583-4.967c-0.252-1.26-0.288-3.312-0.288-5.22
		c0-1.439,0.216-2.843,1.224-3.635c1.08-0.864,1.944-0.612,3.456-0.972c1.548-0.36,3.132-0.792,4.751-0.792
		c1.656,0,2.376-0.288,3.528-0.36c0.54-0.036,0.72,1.44,0.72,3.564c0,2.627-0.792,6.479-0.792,8.783c0,0.792,0.072,1.404,0.36,1.692
		c0.468,0.324,0.792,0.54,1.224,0.54c0.396,0,0.9-0.18,1.62-0.612c0.9-0.54,2.556-1.944,2.7-1.944c0.072,0-0.144,0.288-0.936,1.08
		c-0.828,0.828-2.916,2.34-3.852,2.952c-1.08,0.72-1.691,1.116-2.447,1.116C29.807,26.63,29.626,26.595,29.411,26.559z
		 M28.871,21.555c0.108-1.944,0.288-3.815,0.396-5.723c0.036-0.684,0.072-1.296,0.072-1.764c0-1.547-0.36-2.124-2.088-2.124
		c-0.756,0-1.548,0.18-2.268,0.36c-2.016,0.504-3.924,0.576-3.924,3.42c0,2.231,0.828,6.947,3.132,7.703
		c0.18,0.072,0.396,0.072,0.684,0.072C26.315,23.499,28.799,22.635,28.871,21.555z"/>
	<path d="M36.252,24.255c-1.188-2.412-1.404-3.852-1.8-7.019c-0.18-1.404-0.396-2.376-0.396-3.132s0.216-1.368,0.828-2.052
		c1.224-1.332,5.868-2.987,8.243-2.987c1.368,0,4.716,0.756,4.716,2.556c0,1.332-2.483,3.779-1.944,4.247
		c0.217,0.216,0.648,0.252,1.188,0.252c0.576,0,1.224-0.072,1.764-0.072c0.576,0,1.008,0.072,1.008,0.396
		c0,0.108-0.071,0.252-0.18,0.432c-0.792,1.188-1.116,1.836-1.8,1.836c-0.359,0-0.828-0.216-1.548-0.612
		c-0.576-0.324-1.224-0.468-1.872-0.468c-0.432,0-0.899,0.072-1.367,0.144c-2.448,0.432-4.968-0.072-4.968,2.16
		c0,0.18,0,0.36,0.036,0.576c0.324,2.088,1.296,4.175,2.879,3.959c3.636-0.504,6.551-4.139,6.767-4.139
		c0.072,0-0.216,0.504-1.043,1.943c-1.297,2.268-3.889,4.32-7.452,4.32C37.62,26.595,37.08,25.911,36.252,24.255z M41.327,16.516
		c1.008-0.108,2.627,0.036,3.419-0.648c0.396-0.36,1.008-1.835,1.008-2.664c0-0.9-0.684-0.72-1.224-0.972
		c-1.188-0.54-2.771-1.008-4.14-1.008c-1.152,0-2.16,0.324-2.7,1.188c-0.108,0.18-0.108,1.188-0.108,1.872
		c0,1.404,0.216,2.879,0.432,2.879C39.131,17.164,40.247,16.624,41.327,16.516z"/>
	<path d="M52.955,21.375c0-1.979,0.973-3.779,2.232-5.759c0.144-0.216,1.943-3.06,1.907-3.06h-6.19
		c-1.152,0-3.816,0.036-3.816-0.396c0-0.108,0.108-0.216,0.432-0.36c1.512-0.72,5.724-3.923,7.523-5.543l2.376-2.16
		c0.036-0.036,2.556-2.195,2.556-2.268c0.107-0.072,0.145-0.108,0.18-0.108c0.108,0-0.9,1.044-1.115,1.224
		c-1.008,0.936-1.836,1.656-2.844,2.556l-2.952,2.592l-2.087,1.548c-0.324,0.216,0.791,0.108,1.331,0.108
		c0.576,0,1.188,0.072,1.728,0.108c0.828,0.072,1.692,0.108,2.52,0.108c2.34,0,4.68-0.216,7.02-0.216
		c1.188,0,2.34,0.036,3.527,0.216c0.324,0.036,0.648,0.072,1.008,0.072c0.541,0,1.116-0.108,1.584-0.108
		c1.512,0-0.324,0.504-0.863,0.9c-1.62,1.26-3.744,1.764-5.76,1.764l-0.972,0.072c-0.181,0-0.324,0-0.504,0
		c-0.647,0-1.26,0-1.907,0.036c-2.629,0.036-3.564,2.34-3.6,4.607c0,1.44,0,2.88,0.575,3.923c0.792,1.44,3.06,2.916,5.363,2.916
		c1.224,0,2.987-1.152,2.987-2.448c-0.035-0.684-0.539-1.224-0.539-1.872c0-1.008,1.871-1.799,2.699-1.799
		c0.648,0,0.828,0.612,0.828,1.224s-0.252,1.26-0.612,1.728c-2.304,2.556-5.075,5.58-8.747,5.651
		C55.907,26.667,52.955,24.291,52.955,21.375z"/>
	<path d="M69.912,24.255c-1.188-2.412-1.404-3.852-1.801-7.019c-0.18-1.404-0.396-2.376-0.396-3.132s0.216-1.368,0.827-2.052
		c1.225-1.332,5.868-2.987,8.244-2.987c1.367,0,4.715,0.756,4.715,2.556c0,1.332-2.483,3.779-1.943,4.247
		c0.216,0.216,0.647,0.252,1.188,0.252c0.576,0,1.224-0.072,1.764-0.072c0.576,0,1.008,0.072,1.008,0.396
		c0,0.108-0.072,0.252-0.18,0.432c-0.792,1.188-1.116,1.836-1.8,1.836c-0.36,0-0.828-0.216-1.548-0.612
		c-0.576-0.324-1.225-0.468-1.871-0.468c-0.433,0-0.9,0.072-1.369,0.144c-2.447,0.432-4.967-0.072-4.967,2.16
		c0,0.18,0,0.36,0.036,0.576c0.323,2.088,1.296,4.175,2.88,3.959c3.635-0.504,6.551-4.139,6.767-4.139
		c0.072,0-0.216,0.504-1.044,1.943c-1.295,2.268-3.887,4.32-7.451,4.32C71.279,26.595,70.739,25.911,69.912,24.255z M74.986,16.516
		c1.008-0.108,2.628,0.036,3.42-0.648c0.396-0.36,1.008-1.835,1.008-2.664c0-0.9-0.684-0.72-1.224-0.972
		c-1.188-0.54-2.771-1.008-4.14-1.008c-1.152,0-2.16,0.324-2.699,1.188c-0.108,0.18-0.108,1.188-0.108,1.872
		c0,1.404,0.216,2.879,0.433,2.879C72.791,17.164,73.906,16.624,74.986,16.516z"/>
	<path d="M85.822,32.426c0.108-1.836,0.289-3.708,0.289-5.544c0,0.828,0.035-0.864,0.035-3.239c0-2.736-0.035-6.479-0.18-8.279
		c-0.18-2.7-0.612-3.239-1.548-3.239c-0.288,0-0.647,0.072-1.08,0.108c-0.504,0.072-0.972,0.108-1.296,0.108
		s-0.504-0.036-0.504-0.144c0-0.612,3.312-1.872,3.852-2.052c0.611-0.216,1.26-0.432,1.584-0.612
		c0.432-0.216,1.188-0.468,1.691-0.468c0.252,0,0.432,0.072,0.432,0.252c-0.071,0.828-0.215,1.26-0.323,1.872
		c-0.036,0.144,0.036,0.216,0.144,0.216c0.504,0,2.195-1.152,3.275-1.404c0.973-0.252,1.801-0.756,2.628-0.756
		c0.396,0,0.792,0.108,1.224,0.432c1.44,1.08,2.232,2.664,2.232,4.391c0,1.26-0.469,2.628-0.864,3.816
		c-0.36,1.08-0.972,2.124-0.972,3.419c0,1.979,0.576,2.556,1.656,2.556c0.575,0,1.295-0.18,2.123-0.36
		c1.512-0.36,2.664-1.584,2.412-1.008c-1.26,1.835-4.787,3.023-6.695,3.312c-0.145,0.036-0.288,0.036-0.432,0.036
		c-1.08,0-1.44-0.72-1.44-1.872c0-0.9,0.216-2.052,0.504-3.312c0.36-1.62,0.72-3.06,0.72-4.427c0-1.764-1.043-4.932-3.131-4.932
		c-0.756,0-1.188,0.036-2.232,0.396c-0.684,0.252-0.863,0.756-0.899,1.98c-0.036,1.547-0.036,3.491-0.144,4.967
		c-0.037,0.504-0.037,3.239-0.037,5.831c0,1.836-0.071,3.6-0.287,5.399c-0.576,4.68-0.973,7.668-3.348,8.207
		C84.742,38.185,85.606,36.458,85.822,32.426z"/>
</g>
</svg>
