<?xml version="1.0" encoding="utf-8"?>
<!-- Generator: Adobe Illustrator 16.0.0, SVG Export Plug-In . SVG Version: 6.00 Build 0)  -->
<!DOCTYPE svg PUBLIC "-//W3C//DTD SVG 1.1//EN" "http://www.w3.org/Graphics/SVG/1.1/DTD/svg11.dtd">
<svg version="1.1" id="Layer_1" xmlns="http://www.w3.org/2000/svg" xmlns:xlink="http://www.w3.org/1999/xlink" x="0px" y="0px"
	 width="19.917px" height="24px" viewBox="0 6.25 19.917 24" enable-background="new 0 6.25 19.917 24" xml:space="preserve">
<g>
	<path d="M0.011,28.73c0-1.404,2.232-1.765,3.275-1.765l0.504,0.035c3.06,0,3.744-1.367,3.744-4.211
		c0-0.576-0.036-1.152-0.036-1.656c0-2.951-0.036-6.011-0.612-8.927c-0.108-0.54-0.324-1.116-0.648-1.584
		c-0.792-0.9-1.979-1.44-3.167-1.44c-0.396,0-0.792,0.072-1.152,0.144C1.775,9.364,1.343,9.508,1.307,9.4V9.364
		c0-0.036,0.036-0.108,0.288-0.252c0.792-0.54,1.728-0.828,2.627-1.404c0.684-0.432,1.656-0.972,2.556-0.972
		c0.432,0,0.864,0.144,1.224,0.504c1.08,1.08,1.728,3.563,1.656,5.075c1.476-2.664,3.671-5.003,6.767-5.436
		c0.145-0.036,0.359-0.036,0.576-0.036c0.18,0,0.324,0,0.467,0.036c0.721,0.144,2.447,1.656,2.447,2.484
		c0,0.612-1.871,2.736-2.627,2.736c-0.972,0-1.367-1.944-1.908-2.52c-0.359-0.396-0.719-0.54-1.114-0.54
		c-1.009,0-1.979,1.116-2.448,1.979c-1.08,2.016-1.62,3.023-1.62,5.255c0,0.468,0,0.972-0.072,1.439
		c-0.144,1.045-0.144,2.16-0.36,3.275c-0.396,2.016-1.044,4.607-2.772,6.012c-1.368,1.116-2.16,2.088-3.959,2.483
		c-0.504,0.107-1.08,0.359-1.728,0.359S0.011,29.594,0.011,28.73z"/>
</g>
</svg>
