<?xml version="1.0" encoding="utf-8"?>
<!-- Generator: Adobe Illustrator 16.0.0, SVG Export Plug-In . SVG Version: 6.00 Build 0)  -->
<!DOCTYPE svg PUBLIC "-//W3C//DTD SVG 1.1//EN" "http://www.w3.org/Graphics/SVG/1.1/DTD/svg11.dtd">
<svg version="1.1" id="Layer_1" xmlns="http://www.w3.org/2000/svg" xmlns:xlink="http://www.w3.org/1999/xlink" x="0px" y="0px"
	 width="21.083px" height="45.333px" viewBox="0 1.083 21.083 45.333" enable-background="new 0 1.083 21.083 45.333"
	 xml:space="preserve">
<g>
	<path d="M0.096,45.611c0-1.225,1.728-3.383,2.124-4.104c1.08-1.942,1.98-3.923,2.988-5.901l3.671-7.235
		c0.18-0.324,0.324-0.612,0.504-0.899l1.008-1.801c0.684-1.15,1.98-3.527,1.98-4.715c0-0.792-0.973-2.124-1.369-2.88
		c-0.756-1.44-1.548-2.916-2.16-4.355c-0.648-1.476-1.152-3.096-2.196-4.284c-0.612-0.684-1.368-0.828-2.16-0.828
		c-0.576,0-1.152,0.072-1.656,0.072c-0.432,0-0.828-0.072-1.08-0.36c0.54-1.224,2.052-1.404,3.492-1.404
		c0.612,0,1.224,0.036,1.728,0.036c0.756-0.036,1.08-0.72,1.62-0.72c0.216,0,0.468,0.144,0.828,0.468
		c0.792,0.756,0.9,2.016,1.368,3.06c0.719,1.62,2.484,5.183,3.204,6.875c0.36-1.008,1.692-3.131,1.908-3.563
		c0.576-1.116,1.15-2.34,1.262-3.456c-0.396-0.252-1.332-0.144-1.262-0.936c0.036-0.36,1.01-0.612,1.262-0.684
		c0.826-0.252,2.016-0.792,3.022-0.792h0.827c0.107,0.756-0.323,1.368-0.793,1.908c-0.646,0.72-1.114,1.296-1.547,2.16
		c-1.045,2.088-1.979,4.248-2.881,6.408c-1.043,2.483-2.194,4.967-3.418,7.414c-2.088,4.213-4.141,8.279-6.228,12.455
		c-0.576,1.188-2.16,4.319-2.16,5.579c0,0.396,0.18,0.576,0.612,0.468c0.972-0.432,1.512-0.576,1.764-0.576
		c1.116,0-4.896,3.853-5.867,3.312C0.204,46.188,0.096,45.936,0.096,45.611z M11.866,3.173c0-0.828,0.648-1.799,1.512-1.799
		c0.613,0,1.188,0.468,1.188,1.08c0,0.144,0,0.252-0.036,0.36c-0.145,0.72-0.972,1.44-1.691,1.44
		C12.262,4.253,11.866,3.713,11.866,3.173z"/>
</g>
</svg>
