<?xml version="1.0" encoding="utf-8"?>
<!-- Generator: Adobe Illustrator 16.0.0, SVG Export Plug-In . SVG Version: 6.00 Build 0)  -->
<!DOCTYPE svg PUBLIC "-//W3C//DTD SVG 1.1//EN" "http://www.w3.org/Graphics/SVG/1.1/DTD/svg11.dtd">
<svg version="1.1" id="Layer_1" xmlns="http://www.w3.org/2000/svg" xmlns:xlink="http://www.w3.org/1999/xlink" x="0px" y="0px"
	 width="29.167px" height="29.5px" viewBox="0 0 29.167 29.5" enable-background="new 0 0 29.167 29.5" xml:space="preserve">
<g>
	<path d="M1.755,30.117c0.324-0.72,0.936-1.512,1.692-1.979c0.396-0.288,0.828-0.396,1.296-0.396c0.612,0,1.224,0.144,1.836,0.252
		c0.216,0.035,0.432,0.035,0.648,0.035c1.943,0,4.139-1.943,4.715-3.707c0.036-0.252,0.072-0.576,0.072-0.9
		c0-0.756-0.144-1.619-0.468-2.195c-0.828-1.477-2.196-2.484-3.419-3.672c-1.152-1.115-2.556-1.979-3.204-3.635
		c-0.252-0.684-0.36-1.368-0.36-2.052c0-1.548,0.612-3.023,1.548-4.248c1.332-1.512,5.22-3.635,7.199-3.635
		c1.584-0.036,2.88,0,4.211,1.008C17.917,5.28,18.097,5.641,18.097,6c0,0.72-1.225,2.808-2.052,2.808
		c-0.54,0-0.792-1.008-1.332-1.692c-0.792-0.9-1.908-1.44-3.06-1.44c-2.268,0-3.959,2.196-3.959,4.355
		c0,1.692,1.152,2.952,2.375,4.032c1.476,1.26,2.7,2.628,3.168,4.679c0.612-1.151,3.203-2.447,4.391-2.807
		c0.504-0.145,1.009-0.217,1.513-0.217c1.151,0,2.195,0.432,3.06,1.404c0.216,0.216,0.324,0.432,0.324,0.9
		c0,0.971-1.188,2.879-2.305,2.879c-0.827,0-1.512-0.936-2.159-1.476c-0.612-0.54-1.368-0.756-2.124-0.756
		c-0.792,0-1.944,0.252-2.412,0.937c-0.072,0.071-0.072,0.215-0.072,0.359c0,1.367-0.108,2.34-0.612,3.455
		c-0.432,0.864-0.864,1.764-1.512,2.52c-1.44,1.764-3.24,3.385-5.184,4.32c-0.288,0.216-2.052,0.647-3.24,0.647
		C2.079,30.909,1.503,30.729,1.755,30.117z"/>
</g>
</svg>
